# Blender 4.2.3 LTS
# www.blender.org
mtllib Entrance_Col.mtl
o Entrance_col
v -10.000001 0.002855 -7.778059
v -10.000001 40.000000 -7.778059
v -10.000001 0.002855 -12.199999
v -10.000001 40.000000 -12.199999
v 9.999999 0.002855 -7.778059
v 9.999999 40.000000 -7.778059
v 9.999999 0.002855 -12.199999
v 9.999999 40.000000 -12.199999
v -6.744097 0.002855 -7.778059
v 0.000001 22.792980 -8.266421
v 6.744095 0.002855 -7.778059
v 6.744095 0.002855 -12.199999
v 0.000002 22.792980 -12.688361
v -6.744097 0.002855 -12.199999
v -4.819594 20.812965 -8.266421
v -4.819594 20.812963 -12.688361
v 4.819597 20.812965 -8.266421
v 4.819596 20.812967 -12.688361
v -6.806000 15.802897 -12.688131
v 6.806002 15.802900 -8.266191
v 6.806002 15.802901 -12.688131
v -6.806000 15.802899 -8.266191
vn -0.0000 0.0284 -0.9996
vn -0.0000 -0.0284 0.9996
vn 1.0000 0.0039 -0.0000
vn -0.3800 -0.9250 -0.0000
vn -0.9296 -0.3686 -0.0000
vn 0.3800 -0.9250 -0.0000
vn 0.9296 -0.3686 -0.0000
vn -1.0000 0.0039 -0.0000
vn -0.0000 -0.0000 -1.0000
vn 0.3702 -0.0301 -0.9285
vn -0.3702 -0.0301 -0.9285
vn -0.0382 0.0151 -0.9992
vn 0.0382 0.0151 -0.9992
vn -0.0094 0.0229 -0.9997
vn 0.0094 0.0229 -0.9997
vn -0.0000 -0.0000 1.0000
vn 0.3702 0.0301 0.9285
vn -0.3702 0.0301 0.9285
vn -0.0382 -0.0151 0.9992
vn 0.0382 -0.0151 0.9992
vn -0.0094 -0.0229 0.9997
vn 0.0094 -0.0229 0.9997
vt 0.625000 0.250000
vt 0.625000 0.500000
vt 0.375000 0.375000
vt 0.625000 0.750000
vt 0.625000 1.000000
vt 0.375000 0.875000
vt 0.375000 0.312500
vt 0.375000 0.921875
vt 0.375000 0.937500
vt 0.375000 0.843750
vt 0.375000 0.421875
vt 0.375000 0.828125
vt 0.375000 0.906250
vt 0.375000 0.328125
vt 0.375000 0.437500
vt 0.375000 0.812500
vt 0.375000 0.250000
vt 0.375000 0.500000
vt 0.375000 0.343750
vt 0.375000 0.406250
vt 0.375000 0.750000
vt 0.375000 1.000000
s 0
f 4/1/1 8/2/1 13/3/1
f 6/4/2 2/5/2 10/6/2
f 14/7/3 22/8/3 9/9/3
f 13/3/4 17/10/4 10/6/4
f 17/10/5 21/11/5 20/12/5
f 15/13/6 13/3/6 10/6/6
f 19/14/7 15/13/7 22/8/7
f 20/12/8 12/15/8 11/16/8
f 14/7/9 3/17/9 4/1/9
f 8/2/9 7/18/9 12/15/9
f 8/2/10 12/15/10 21/11/10
f 19/14/11 14/7/11 4/1/11
f 16/19/12 19/14/12 4/1/12
f 8/2/13 21/11/13 18/20/13
f 13/3/14 16/19/14 4/1/14
f 8/2/15 18/20/15 13/3/15
f 11/16/16 5/21/16 6/4/16
f 2/5/16 1/22/16 9/9/16
f 2/5/17 9/9/17 22/8/17
f 20/12/18 11/16/18 6/4/18
f 17/10/19 20/12/19 6/4/19
f 2/5/20 22/8/20 15/13/20
f 10/6/21 17/10/21 6/4/21
f 2/5/22 15/13/22 10/6/22
f 14/7/3 19/14/3 22/8/3
f 13/3/4 18/20/4 17/10/4
f 17/10/5 18/20/5 21/11/5
f 15/13/6 16/19/6 13/3/6
f 19/14/7 16/19/7 15/13/7
f 20/12/8 21/11/8 12/15/8
