# Blender 4.2.3 LTS
# www.blender.org
mtllib Pillar.mtl
o Pillar
v -2.204082 2.279330 2.500000
v -2.500000 2.279330 2.204082
v -2.500000 28.138386 2.204080
v -2.204082 28.138386 2.499998
v -2.500000 2.279330 -2.204082
v -2.204082 2.279330 -2.500000
v -2.204082 28.138386 -2.500002
v -2.500000 28.138386 -2.204084
v 2.500000 2.279330 2.204082
v 2.204082 2.279330 2.500000
v 2.204082 28.138386 2.499998
v 2.500000 28.138386 2.204080
v 2.204082 2.279330 -2.500000
v 2.500000 2.279330 -2.204082
v 2.500000 28.138386 -2.204084
v 2.204082 28.138386 -2.500002
v 2.773405 8.423664 -3.051491
v 3.051495 8.423664 -2.773401
v 3.051493 9.936666 -2.773401
v 2.773403 9.936666 -3.051491
v 3.051495 8.423664 2.773401
v 2.773405 8.423664 3.051491
v 2.773403 9.936666 3.051491
v 3.051493 9.936666 2.773401
v -3.051491 8.423664 -2.773401
v -2.773400 8.423664 -3.051491
v -2.773402 9.936666 -3.051491
v -3.051492 9.936666 -2.773401
v -2.773400 8.423664 3.051492
v -3.051490 8.423664 2.773401
v -3.051492 9.936666 2.773401
v -2.773402 9.936666 3.051491
v -2.204082 8.208795 2.499999
v -2.500000 8.208795 2.204082
v -2.204082 8.208795 -2.500001
v -2.500000 8.208795 -2.204083
v 2.500000 8.208795 -2.204083
v 2.204082 8.208795 -2.500001
v 2.204082 8.208795 2.499999
v 2.500000 8.208795 2.204082
v -2.204082 10.144107 2.499999
v -2.500000 10.144107 -2.204083
v 2.204082 10.144107 -2.500001
v 2.500000 10.144107 2.204082
v -2.500000 10.144107 2.204082
v -2.204082 10.144107 -2.500001
v 2.500000 10.144107 -2.204083
v 2.204082 10.144107 2.499999
v -2.204082 27.805159 2.499998
v -2.500000 27.805159 -2.204084
v 2.204082 27.805159 -2.500002
v 2.500000 27.805159 2.204080
v -2.500000 27.805159 2.204080
v -2.204082 27.805159 -2.500002
v 2.500000 27.805159 -2.204084
v 2.204082 27.805159 2.499998
v -2.500000 2.780241 2.204082
v -2.204082 2.780240 -2.500000
v 2.500000 2.780240 -2.204082
v 2.204082 2.780241 2.500000
v -2.204082 2.780241 2.500000
v -2.500000 2.780240 -2.204082
v 2.204082 2.780240 -2.500000
v 2.500000 2.780241 2.204082
v -2.773400 0.002188 -3.051492
v -2.773400 2.504345 -3.051491
v -3.051490 2.504345 -2.773401
v 3.051492 2.504345 -2.773401
v 2.773402 2.504345 -3.051491
v -2.773399 0.002189 3.051492
v -3.051490 0.002189 2.773402
v -3.051490 2.504346 2.773405
v -2.773399 2.504346 3.051495
v 2.773402 0.002189 3.051492
v 2.773403 2.504346 3.051494
v 3.051493 2.504346 2.773404
v 3.051493 27.990116 2.773402
v 2.773403 27.990116 3.051492
v 2.773403 30.519541 3.051490
v 3.051493 30.519541 2.773400
v -2.773398 27.990116 3.051493
v -3.051489 27.990116 2.773403
v -3.051489 30.519541 2.773400
v -2.773398 30.519541 3.051490
v 2.773402 27.990116 -3.051493
v 3.051492 27.990116 -2.773403
v 3.051492 30.519541 -2.773405
v 2.773402 30.519541 -3.051495
v -3.051490 27.990116 -2.773402
v -2.773399 27.990116 -3.051492
v -2.773400 30.519541 -3.051495
v -3.051490 30.519541 -2.773405
v 3.051493 0.002189 2.773404
v 2.773402 0.002188 -3.051491
v 3.051492 0.002188 -2.773401
v -3.051490 0.002188 -2.773400
v -2.204082 27.805159 2.499998
v -2.204082 28.138386 2.499998
v -2.500000 2.780241 2.204082
v -2.500000 2.279330 2.204082
v -2.204082 2.780240 -2.500000
v -2.204082 2.279330 -2.500000
v -2.500000 27.805159 -2.204084
v -2.500000 28.138386 -2.204084
v 2.500000 2.780240 -2.204082
v 2.500000 2.279330 -2.204082
v 2.204082 27.805159 -2.500002
v 2.204082 28.138386 -2.500002
v 2.204082 2.780241 2.500000
v 2.204082 2.279330 2.500000
v 2.500000 27.805159 2.204080
v 2.500000 28.138386 2.204080
v 3.051495 8.423664 2.773401
v 3.051495 8.423664 2.773401
v 3.051493 9.936666 2.773401
v 3.051493 9.936666 2.773401
v 2.773403 9.936666 3.051491
v 2.773403 9.936666 3.051491
v 2.773405 8.423664 3.051491
v 2.773405 8.423664 3.051491
v 2.773405 8.423664 -3.051491
v 2.773405 8.423664 -3.051491
v 2.773403 9.936666 -3.051491
v 2.773403 9.936666 -3.051491
v 3.051495 8.423664 -2.773401
v 3.051495 8.423664 -2.773401
v -2.773400 8.423664 -3.051491
v -2.773400 8.423664 -3.051491
v -3.051490 8.423664 2.773401
v -3.051490 8.423664 2.773401
v -2.773400 8.423664 3.051492
v -2.773400 8.423664 3.051492
v -2.773402 9.936666 3.051491
v -2.773402 9.936666 3.051491
v -3.051492 9.936666 -2.773401
v -3.051492 9.936666 -2.773401
v -3.051492 9.936666 2.773401
v -3.051492 9.936666 2.773401
v -3.051491 8.423664 -2.773401
v -3.051491 8.423664 -2.773401
v 3.051493 9.936666 -2.773401
v 3.051493 9.936666 -2.773401
v -2.773402 9.936666 -3.051491
v -2.773402 9.936666 -3.051491
v -2.500000 10.144107 2.204082
v -2.500000 8.208795 2.204082
v -2.204082 10.144107 -2.500001
v -2.204082 8.208795 -2.500001
v 2.500000 10.144107 -2.204083
v 2.500000 8.208795 -2.204083
v 2.204082 10.144107 2.499999
v 2.204082 8.208795 2.499999
v -2.204082 8.208795 2.499999
v -2.204082 10.144107 2.499999
v -2.500000 8.208795 -2.204083
v -2.500000 10.144107 -2.204083
v 2.204082 8.208795 -2.500001
v 2.204082 10.144107 -2.500001
v 2.500000 8.208795 2.204082
v 2.500000 10.144107 2.204082
v -2.500000 27.805159 2.204080
v -2.204082 27.805159 -2.500002
v 2.500000 27.805159 -2.204084
v 2.204082 27.805159 2.499998
v -2.204082 2.780241 2.500000
v -2.500000 2.780240 -2.204082
v 2.204082 2.780240 -2.500000
v 2.500000 2.780241 2.204082
v -2.500000 28.138386 2.204080
v -2.204082 28.138386 -2.500002
v 2.500000 28.138386 -2.204084
v 2.204082 28.138386 2.499998
v -2.204082 2.279330 2.500000
v -2.500000 2.279330 -2.204082
v 2.204082 2.279330 -2.500000
v 2.500000 2.279330 2.204082
v 2.773402 2.504345 -3.051491
v 2.773402 2.504345 -3.051491
v 3.051492 2.504345 -2.773401
v 3.051492 2.504345 -2.773401
v 3.051493 2.504346 2.773404
v 3.051493 2.504346 2.773404
v -2.773399 2.504346 3.051495
v -2.773399 2.504346 3.051495
v 2.773403 2.504346 3.051494
v 2.773403 2.504346 3.051494
v 2.773402 0.002189 3.051492
v 2.773402 0.002189 3.051492
v -2.773399 0.002189 3.051492
v -2.773399 0.002189 3.051492
v -2.773400 2.504345 -3.051491
v -2.773400 2.504345 -3.051491
v -3.051490 2.504346 2.773405
v -3.051490 2.504346 2.773405
v -3.051490 0.002189 2.773402
v -3.051490 0.002189 2.773402
v -2.773400 0.002188 -3.051492
v -2.773400 0.002188 -3.051492
v -3.051490 2.504345 -2.773401
v -3.051490 2.504345 -2.773401
v -2.773398 27.990116 3.051493
v -2.773398 27.990116 3.051493
v -2.773398 30.519541 3.051490
v -2.773398 30.519541 3.051490
v -3.051489 30.519541 2.773400
v -3.051489 30.519541 2.773400
v -3.051489 27.990116 2.773403
v -3.051489 27.990116 2.773403
v 3.051493 27.990116 2.773402
v 3.051493 27.990116 2.773402
v 3.051493 30.519541 2.773400
v 3.051493 30.519541 2.773400
v 2.773403 27.990116 3.051492
v 2.773403 27.990116 3.051492
v 3.051492 27.990116 -2.773403
v 3.051492 27.990116 -2.773403
v -2.773399 27.990116 -3.051492
v -2.773399 27.990116 -3.051492
v -3.051490 27.990116 -2.773402
v -3.051490 27.990116 -2.773402
v -3.051490 30.519541 -2.773405
v -3.051490 30.519541 -2.773405
v 2.773402 30.519541 -3.051495
v 2.773402 30.519541 -3.051495
v -2.773400 30.519541 -3.051495
v -2.773400 30.519541 -3.051495
v 2.773402 27.990116 -3.051493
v 2.773402 27.990116 -3.051493
v 2.773403 30.519541 3.051490
v 2.773403 30.519541 3.051490
v 3.051492 30.519541 -2.773405
v 3.051492 30.519541 -2.773405
v 3.051492 0.002188 -2.773401
v 3.051492 0.002188 -2.773401
v 3.051493 0.002189 2.773404
v 3.051493 0.002189 2.773404
v 2.773402 0.002188 -3.051491
v 2.773402 0.002188 -3.051491
v -3.051490 0.002188 -2.773400
v -3.051490 0.002188 -2.773400
vn -0.0000 -0.0000 1.0000
vn 1.0000 -0.0000 -0.0000
vn -0.0000 -0.0000 -1.0000
vn -0.7071 -0.0000 0.7071
vn -0.7071 -0.0000 -0.7071
vn 0.7071 -0.0000 -0.7071
vn 0.7071 -0.0000 0.7071
vn -1.0000 -0.0000 -0.0000
vn -0.0000 -1.0000 -0.0000
vn -0.0000 1.0000 -0.0000
vt 0.749979 0.984729
vt 0.610723 0.975707
vt 0.749979 0.975707
vt 0.907932 0.984729
vt 0.768676 0.975707
vt 0.907932 0.975707
vt 0.749660 0.984729
vt 0.610404 0.975707
vt 0.749660 0.975707
vt 0.610723 0.984729
vt 0.593629 0.975723
vt 0.749660 0.284610
vt 0.768356 0.294878
vt 0.749660 0.294878
vt 0.593310 0.284594
vt 0.610403 0.294878
vt 0.593310 0.294863
vt 0.749979 0.284610
vt 0.768676 0.294878
vt 0.749980 0.294878
vt 0.907613 0.984729
vt 0.768356 0.975707
vt 0.907613 0.975707
vt 0.989441 0.308568
vt 0.928864 0.299157
vt 0.928864 0.308567
vt 0.989441 0.166432
vt 0.928864 0.157022
vt 0.928864 0.166432
vt 0.928863 0.583428
vt 0.989440 0.592838
vt 0.989440 0.583428
vt 0.928864 0.450703
vt 0.989441 0.441292
vt 0.928864 0.441292
vt 0.989441 0.299157
vt 0.928864 0.024297
vt 0.989441 0.157022
vt 0.989441 0.024297
vt 0.989441 0.450703
vt 0.789485 0.163676
vt 0.922210 0.017643
vt 0.922210 0.017643
vt 0.782830 0.024297
vt 0.768676 0.445147
vt 0.749979 0.445147
vt 0.768676 0.497544
vt 0.749979 0.497544
vt 0.593310 0.445131
vt 0.610403 0.497544
vt 0.593310 0.497529
vt 0.749660 0.445147
vt 0.768356 0.497544
vt 0.749660 0.497544
vt 0.907613 0.445147
vt 0.907612 0.294878
vt 0.610723 0.445147
vt 0.593630 0.294894
vt 0.610723 0.294878
vt 0.610403 0.294878
vt 0.907932 0.445147
vt 0.907932 0.294878
vt 0.907613 0.497544
vt 0.768356 0.445147
vt 0.610723 0.497544
vt 0.593629 0.445163
vt 0.610403 0.445147
vt 0.907932 0.497544
vt 0.610403 0.975707
vt 0.593310 0.975692
vt 0.610403 0.445147
vt 0.768356 0.984729
vt 0.610403 0.984729
vt 0.593310 0.984714
vt 0.768676 0.984729
vt 0.593629 0.497560
vt 0.610403 0.497544
vt 0.768356 0.284610
vt 0.907612 0.284610
vt 0.593630 0.284626
vt 0.610723 0.284610
vt 0.610403 0.284610
vt 0.768676 0.284610
vt 0.907932 0.284610
vt 0.928863 0.592838
vt 0.610404 0.984729
vt 0.593629 0.984745
vt 0.610403 0.284610
vt 0.789485 0.017643
vt 0.782831 0.024297
vt 0.782831 0.157022
vt 0.922210 0.163676
vt 0.928864 0.024297
vt 0.782830 0.157022
vt 0.789485 0.163676
vt 0.922210 0.163676
vt 0.789485 0.017643
s 1
usemtl Tavern_05.001
f 11/1/1 97/2/1 56/3/1
f 15/4/2 111/5/2 55/6/2
f 7/7/3 107/8/3 54/9/3
f 4/10/4 53/11/4 49/2/4
f 102/12/5 62/13/5 101/14/5
f 106/15/6 63/16/6 105/17/6
f 110/18/7 168/19/7 109/20/7
f 3/21/8 103/22/8 161/23/8
f 129/24/4 133/25/4 138/26/4
f 119/27/7 115/28/7 117/29/7
f 123/30/6 125/31/6 121/32/6
f 143/33/5 140/34/5 136/35/5
f 137/26/8 139/34/8 130/24/8
f 118/29/1 132/36/1 120/27/1
f 141/37/2 114/38/2 126/39/2
f 127/40/3 124/30/3 122/32/3
f 30/41/9 26/28/9 18/42/9
f 24/28/10 20/43/10 28/44/10
f 109/20/7 159/45/7 152/46/7
f 152/46/7 160/47/7 151/48/7
f 150/49/6 158/50/6 149/51/6
f 148/52/5 156/53/5 147/54/5
f 146/55/8 166/13/8 99/56/8
f 153/57/4 57/58/4 165/59/4
f 35/52/3 167/60/3 58/14/3
f 37/61/2 64/19/2 59/62/2
f 145/63/8 155/64/8 146/55/8
f 154/65/4 34/66/4 153/57/4
f 46/54/3 38/67/3 35/52/3
f 47/68/2 40/45/2 37/61/2
f 48/48/1 33/57/1 39/46/1
f 149/51/6 51/69/6 163/70/6
f 147/54/5 50/22/5 162/9/5
f 161/23/8 42/53/8 145/63/8
f 151/48/7 52/5/7 164/3/7
f 105/17/6 157/71/6 150/49/6
f 101/14/5 36/64/5 148/52/5
f 162/9/5 104/72/5 170/7/5
f 163/70/6 108/73/6 171/74/6
f 164/3/7 112/75/7 172/1/7
f 49/2/4 45/76/4 154/65/4
f 54/9/3 43/77/3 46/54/3
f 55/6/2 44/47/2 47/68/2
f 56/3/1 41/65/1 48/48/1
f 39/46/1 61/59/1 60/20/1
f 99/56/8 5/78/8 2/79/8
f 165/59/4 100/80/4 173/81/4
f 58/14/3 13/82/3 6/12/3
f 59/62/2 9/83/2 14/84/2
f 60/20/1 1/81/1 10/18/1
f 188/24/7 182/25/7 186/26/7
f 234/27/6 177/28/6 179/29/6
f 239/32/5 192/85/5 197/31/5
f 193/33/4 190/34/4 184/35/4
f 185/26/1 189/34/1 187/24/1
f 180/29/2 235/36/2 233/27/2
f 191/37/3 238/38/3 198/39/3
f 196/40/8 200/30/8 240/32/8
f 69/28/10 67/43/10 73/44/10
f 217/24/5 221/25/5 226/26/5
f 207/27/4 203/28/4 205/29/4
f 209/32/7 230/85/7 213/31/7
f 231/33/6 228/34/6 224/35/6
f 225/26/3 227/34/3 218/24/3
f 206/29/8 220/36/8 208/27/8
f 229/37/1 202/38/1 214/39/1
f 215/40/2 212/30/2 210/32/2
f 90/41/9 86/28/9 78/42/9
f 84/28/10 80/43/10 88/44/10
f 65/41/9 95/28/9 74/42/9
f 11/1/1 98/10/1 97/2/1
f 15/4/2 12/75/2 111/5/2
f 7/7/3 16/86/3 107/8/3
f 4/10/4 169/87/4 53/11/4
f 102/12/5 174/78/5 62/13/5
f 106/15/6 175/88/6 63/16/6
f 110/18/7 176/83/7 168/19/7
f 3/21/8 8/72/8 103/22/8
f 129/24/4 131/36/4 133/25/4
f 119/27/7 113/38/7 115/28/7
f 123/30/6 142/85/6 125/31/6
f 143/33/5 128/40/5 140/34/5
f 137/26/8 135/35/8 139/34/8
f 118/29/1 134/25/1 132/36/1
f 141/37/2 116/28/2 114/38/2
f 127/40/3 144/33/3 124/30/3
f 18/42/9 21/89/9 22/90/9
f 22/90/9 29/91/9 30/41/9
f 30/41/9 25/92/9 26/28/9
f 26/28/9 17/93/9 18/42/9
f 18/42/9 22/90/9 30/41/9
f 28/44/10 31/94/10 32/95/10
f 32/95/10 23/96/10 24/28/10
f 24/28/10 19/37/10 20/43/10
f 20/43/10 27/97/10 28/44/10
f 28/44/10 32/95/10 24/28/10
f 109/20/7 168/19/7 159/45/7
f 152/46/7 159/45/7 160/47/7
f 150/49/6 157/71/6 158/50/6
f 148/52/5 36/64/5 156/53/5
f 146/55/8 155/64/8 166/13/8
f 153/57/4 34/66/4 57/58/4
f 35/52/3 38/67/3 167/60/3
f 37/61/2 40/45/2 64/19/2
f 145/63/8 42/53/8 155/64/8
f 154/65/4 45/76/4 34/66/4
f 46/54/3 43/77/3 38/67/3
f 47/68/2 44/47/2 40/45/2
f 48/48/1 41/65/1 33/57/1
f 149/51/6 158/50/6 51/69/6
f 147/54/5 156/53/5 50/22/5
f 161/23/8 103/22/8 42/53/8
f 151/48/7 160/47/7 52/5/7
f 105/17/6 63/16/6 157/71/6
f 101/14/5 62/13/5 36/64/5
f 162/9/5 50/22/5 104/72/5
f 163/70/6 51/69/6 108/73/6
f 164/3/7 52/5/7 112/75/7
f 49/2/4 53/11/4 45/76/4
f 54/9/3 107/8/3 43/77/3
f 55/6/2 111/5/2 44/47/2
f 56/3/1 97/2/1 41/65/1
f 39/46/1 33/57/1 61/59/1
f 99/56/8 166/13/8 5/78/8
f 165/59/4 57/58/4 100/80/4
f 58/14/3 167/60/3 13/82/3
f 59/62/2 64/19/2 9/83/2
f 60/20/1 61/59/1 1/81/1
f 188/24/7 236/36/7 182/25/7
f 234/27/6 237/38/6 177/28/6
f 239/32/5 199/30/5 192/85/5
f 193/33/4 195/40/4 190/34/4
f 185/26/1 183/35/1 189/34/1
f 180/29/2 181/25/2 235/36/2
f 191/37/3 178/28/3 238/38/3
f 196/40/8 194/33/8 200/30/8
f 73/44/10 75/94/10 76/95/10
f 76/95/10 68/96/10 69/28/10
f 69/28/10 66/37/10 67/43/10
f 67/43/10 72/97/10 73/44/10
f 73/44/10 76/95/10 69/28/10
f 217/24/5 219/36/5 221/25/5
f 207/27/4 201/38/4 203/28/4
f 209/32/7 211/30/7 230/85/7
f 231/33/6 216/40/6 228/34/6
f 225/26/3 223/35/3 227/34/3
f 206/29/8 222/25/8 220/36/8
f 229/37/1 204/28/1 202/38/1
f 215/40/2 232/33/2 212/30/2
f 78/42/9 81/89/9 82/90/9
f 82/90/9 89/91/9 90/41/9
f 90/41/9 85/92/9 86/28/9
f 86/28/9 77/93/9 78/42/9
f 78/42/9 82/90/9 90/41/9
f 88/44/10 91/94/10 92/95/10
f 92/95/10 83/96/10 84/28/10
f 84/28/10 79/37/10 80/43/10
f 80/43/10 87/97/10 88/44/10
f 88/44/10 92/95/10 84/28/10
f 74/42/9 70/89/9 71/90/9
f 71/90/9 96/91/9 65/41/9
f 65/41/9 94/92/9 95/28/9
f 95/28/9 93/93/9 74/42/9
f 74/42/9 71/90/9 65/41/9
