# Blender 4.2.3 LTS
# www.blender.org
mtllib Wall2.mtl
o Wall
v -10.000003 30.000000 1.999998
v 9.999998 0.009596 -2.000000
v -10.000003 30.000000 -2.000002
v -10.000003 0.009597 2.000000
v 9.999997 30.000000 1.999998
v -10.000003 0.009596 -2.000000
v 9.999997 30.000000 -2.000002
v -10.000003 1.500001 -0.998704
v 9.999997 1.500001 -0.998704
v -10.000003 1.500001 0.998704
v -10.000003 28.500000 0.998702
v -10.000003 28.500000 -0.998706
v 9.999997 1.500001 0.998704
v 9.999997 28.500000 -0.998706
v 9.999997 28.500000 0.998702
v -10.000003 28.500000 1.999998
v -10.000003 28.500000 -2.000002
v 9.999997 28.500000 -2.000002
v 9.999997 28.500000 1.999998
v 9.999998 0.009597 2.000000
v -10.000003 1.500000 2.000000
v -10.000003 1.500000 -2.000000
v 9.999998 1.500000 2.000000
v 9.999998 1.500000 -2.000000
vn -1.0000 -0.0000 -0.0000
vn 1.0000 -0.0000 -0.0000
vn -0.0000 1.0000 -0.0000
vn -0.0000 -1.0000 -0.0000
vn -0.0000 -0.0000 -1.0000
vn -0.0000 -0.0000 1.0000
vt 0.052725 0.054307
vt 0.010140 0.139441
vt 0.010140 0.082734
vt 0.620528 0.167868
vt 0.663113 0.139441
vt 0.663113 0.167868
vt 0.663113 0.082735
vt 0.052725 0.167868
vt 0.620528 0.054308
vt 0.620528 0.082013
vt 0.052726 0.053587
vt 0.052726 0.082013
vt 0.010140 0.054307
vt 0.620528 0.210453
vt 0.052725 0.210453
vt 0.052725 0.011722
vt 0.620528 0.011722
vt 0.663113 0.054308
vt 0.010140 0.167868
vt 0.052725 0.139163
vt 0.620528 0.167589
vt 0.620528 0.139163
vt 0.575108 0.225969
vt 0.012838 0.989127
vt 0.575108 0.989127
vt 0.012838 0.225969
vt 0.575108 0.225969
vt 0.620528 0.053586
vt 0.052725 0.167590
vt 0.012838 0.225969
s 1
usemtl Tavern_05.001
f 1/1/1 12/2/1 11/3/1
f 7/4/2 14/5/2 18/6/2
f 7/4/2 15/7/2 14/5/2
f 3/8/3 5/9/3 7/4/3
f 15/10/4 16/11/4 11/12/4
f 23/8/2 2/13/2 24/1/2
f 6/9/4 20/8/4 4/4/4
f 3/8/5 18/14/5 17/15/5
f 5/9/6 16/16/6 19/17/6
f 22/9/5 2/16/5 6/17/5
f 23/8/6 4/14/6 20/15/6
f 1/1/1 11/3/1 16/13/1
f 15/7/2 5/9/2 19/18/2
f 12/2/1 3/8/1 17/19/1
f 12/20/4 18/21/4 14/22/4
f 23/8/3 22/9/3 21/4/3
f 21/4/1 6/18/1 4/6/1
f 9/23/5 12/24/5 14/25/5
f 10/26/6 15/25/6 11/24/6
f 13/27/2 14/25/2 15/25/2
f 12/24/1 10/26/1 11/24/1
f 1/1/1 3/8/1 12/2/1
f 7/4/2 5/9/2 15/7/2
f 3/8/3 1/1/3 5/9/3
f 15/10/4 19/28/4 16/11/4
f 23/8/2 20/19/2 2/13/2
f 6/9/4 2/1/4 20/8/4
f 3/8/5 7/4/5 18/14/5
f 5/9/6 1/1/6 16/16/6
f 22/9/5 24/1/5 2/16/5
f 23/8/6 21/4/6 4/14/6
f 12/20/4 17/29/4 18/21/4
f 23/8/3 24/1/3 22/9/3
f 21/4/1 22/9/1 6/18/1
f 9/23/5 8/30/5 12/24/5
f 10/26/6 13/27/6 15/25/6
f 13/27/2 9/23/2 14/25/2
f 12/24/1 8/30/1 10/26/1
