# Blender 4.2.3 LTS
# www.blender.org
mtllib Wall_Entrance2.mtl
o Entrance
v 9.999998 0.002878 2.000000
v -6.744098 1.500000 2.000000
v -10.000003 1.500001 -0.998704
v 9.999997 1.500001 -0.998704
v -10.000003 1.500001 0.998704
v 9.999997 1.500001 0.998704
v 9.999997 28.500000 0.998702
v 6.744093 1.500000 2.000000
v -6.744098 1.500000 -2.000000
v -10.000003 1.500000 2.000000
v -10.000003 1.500000 -2.000000
v 9.999998 1.500000 2.000000
v 9.999998 1.500000 -2.000000
v -10.000003 0.002878 -2.000000
v -7.142860 23.100002 -0.998706
v 7.142854 23.100002 -0.998706
v 9.999997 23.100002 -0.998706
v -10.000003 23.100002 0.998702
v 7.142854 23.100002 0.998702
v -7.142860 1.500001 -0.998704
v -7.142860 23.100002 0.998702
v 7.142854 1.500001 -0.998704
v 7.142854 1.500001 0.998704
v 9.999997 23.100002 0.998702
v -10.000003 23.100002 -0.998706
v -7.142860 1.500001 0.998704
v 9.999997 15.900002 -0.998705
v -7.142860 15.900002 0.998703
v -10.000003 15.900002 -0.998705
v 2.737438 22.572630 -0.998701
v -7.142860 15.900002 -0.998701
v -10.000003 15.900002 0.998703
v 5.058134 21.021992 -0.998701
v 6.608772 18.701300 -0.998701
v 7.142854 15.900002 -0.998705
v 9.999997 15.900002 0.998703
v -6.608779 18.701298 -0.998701
v -5.058141 21.021992 -0.998701
v 7.142854 15.900002 0.998703
v -0.000003 23.100002 -0.998706
v -0.000003 23.100002 0.998702
v -2.737448 22.572628 -0.998701
v -2.737448 22.572628 0.998702
v -5.058141 21.021992 0.998702
v -6.608779 18.701298 0.998703
v 6.608772 18.701300 0.998703
v 5.058134 21.021992 0.998702
v 2.737438 22.572630 0.998702
v 6.744093 1.500000 -2.000000
v -10.000003 0.002878 2.000000
v 9.999998 0.002878 -2.000000
v 6.744093 0.002878 -2.000000
v 6.744093 0.002878 2.000000
v -6.744098 0.002878 -2.000000
v -6.744098 0.002878 2.000000
v 6.806001 15.802922 -0.000001
v 2.608343 22.290503 -0.000002
v 9.489154 1.481624 -0.022528
v 9.489154 15.802922 -0.022298
v 8.779636 19.394768 -0.022529
v 6.719640 22.477766 -0.022529
v 3.636639 24.537764 -0.022529
v 6.806001 15.802922 1.511869
v 6.462151 18.654463 1.679151
v 4.819595 20.812988 1.511637
v 2.608343 22.290503 1.511638
v 2.677317 22.441240 1.679151
v 9.314948 1.481624 1.679153
v 8.779636 19.394768 1.511638
v 6.719640 22.477766 1.511638
v 6.592865 22.366686 1.679151
v 3.636639 24.537764 1.511638
v -6.806001 1.481624 -0.000000
v 0.000000 22.793003 -0.000002
v -4.819595 20.812988 -0.000002
v -2.608343 22.290503 -0.000002
v -9.489154 1.481624 -0.022528
v -9.489154 15.802922 -0.022298
v 0.000000 25.238367 -0.022530
v -8.779636 19.394768 -0.022529
v -6.719640 22.477766 -0.022529
v -3.636639 24.537764 -0.022529
v -6.806001 1.481624 1.511639
v -6.979961 15.802922 1.679383
v 0.000000 22.793003 1.511637
v -6.297107 18.601740 1.511638
v -6.462151 18.654463 1.679151
v -4.819595 20.812988 1.511637
v -2.608343 22.290503 1.511638
v -2.677317 22.441240 1.679151
v -9.489154 1.481624 1.511639
v -9.314948 1.481624 1.679153
v -9.314681 15.802922 1.679383
v -8.614844 19.342125 1.679151
v -6.592865 22.366686 1.679151
v -3.567744 24.387199 1.679151
v 6.806001 1.481624 -0.000000
v 6.297107 18.601740 -0.000001
v 4.819595 20.812988 -0.000002
v 9.489154 1.481624 0.022528
v 9.489154 15.802922 0.022295
v 8.779636 19.394768 0.022526
v 6.719640 22.477766 0.022526
v 3.636639 24.537764 0.022526
v 6.806001 1.481624 -1.511639
v 6.806001 15.802922 -1.511871
v 6.462151 18.654463 -1.679154
v 4.946535 20.924212 -1.679155
v 2.608343 22.290503 -1.511641
v 9.314948 1.481624 -1.679153
v 9.314681 15.802922 -1.679385
v 8.779636 19.394768 -1.511640
v 6.592865 22.366686 -1.679155
v 3.567744 24.387199 -1.679155
v 3.636639 24.537764 -1.511641
v -6.806001 15.802922 -0.000001
v -6.297107 18.601740 -0.000001
v -9.489154 1.481624 0.022528
v -9.489154 15.802922 0.022295
v 0.000000 25.238367 0.022526
v -8.779636 19.394768 0.022526
v -6.719640 22.477766 0.022526
v -3.636639 24.537764 0.022526
v -6.979961 15.802922 -1.679385
v 0.000000 22.793003 -1.511641
v 0.000000 22.957281 -1.679155
v -4.946535 20.924212 -1.679155
v -4.819595 20.812988 -1.511641
v -9.489154 1.481624 -1.511639
v -9.489154 15.802922 -1.511871
v -9.314681 15.802922 -1.679385
v 0.000000 25.074270 -1.679155
v -8.614844 19.342125 -1.679154
v -8.779636 19.394768 -1.511640
v -6.719640 22.477766 -1.511641
v 6.979713 1.481624 1.679153
v 6.979961 15.802922 1.679383
v 6.806001 1.481624 1.511639
v 0.000000 22.957281 1.679151
v 4.946535 20.924212 1.679152
v 6.297107 18.601740 1.511638
v 9.489154 1.481624 1.511639
v 9.489154 15.802922 1.511869
v 9.314681 15.802922 1.679383
v 0.000000 25.238367 1.511637
v 0.000000 25.074270 1.679151
v 3.567744 24.387199 1.679151
v 8.614844 19.342125 1.679151
v -6.979713 1.481624 1.679153
v -6.806001 15.802922 1.511869
v -4.946535 20.924212 1.679152
v -9.489154 15.802922 1.511869
v -3.636639 24.537764 1.511638
v -8.779636 19.394768 1.511638
v -6.719640 22.477766 1.511638
v 6.979713 1.481624 -1.679153
v 6.979961 15.802922 -1.679385
v 2.677317 22.441240 -1.679155
v 4.819595 20.812988 -1.511641
v 6.297107 18.601740 -1.511640
v 9.489154 1.481624 -1.511639
v 9.489154 15.802922 -1.511871
v 0.000000 25.238367 -1.511641
v 6.719640 22.477766 -1.511641
v 8.614844 19.342125 -1.679154
v -6.979713 1.481624 -1.679153
v -6.806001 15.802922 -1.511871
v -6.806001 1.481624 -1.511639
v -2.677317 22.441240 -1.679155
v -2.608343 22.290503 -1.511641
v -6.462151 18.654463 -1.679154
v -6.297107 18.601740 -1.511640
v -9.314948 1.481624 -1.679153
v -3.636639 24.537764 -1.511641
v -3.567744 24.387199 -1.679155
v -6.592865 22.366686 -1.679155
v -10.000003 30.000000 1.999998
v -10.000003 30.000000 -2.000002
v 9.999997 30.000000 1.999998
v 9.999997 30.000000 -2.000002
v -10.000003 28.500000 0.998702
v -10.000003 28.500000 -0.998706
v 9.999997 28.500000 -0.998706
v -10.000003 28.500000 1.999998
v -10.000003 28.500000 -2.000002
v 9.999997 28.500000 -2.000002
v 9.999997 28.500000 1.999998
vn 1.0000 -0.0000 -0.0000
vn -1.0000 -0.0000 -0.0000
vn -0.0000 -0.0000 -1.0000
vn -0.0000 -0.0000 1.0000
vn -0.0000 1.0000 -0.0000
vn -0.0000 -1.0000 -0.0000
vn -0.5556 -0.8315 -0.0000
vn -0.9839 -0.1789 -0.0000
vn -0.1892 -0.9819 -0.0000
vn -0.8315 -0.5556 -0.0000
vn 0.5556 0.8315 -0.0000
vn 0.9810 0.1938 -0.0000
vn 0.1892 0.9819 -0.0000
vn 0.8315 0.5556 -0.0000
vn -0.6939 -0.0000 0.7201
vn -0.6936 -0.0000 0.7203
vn -0.1363 -0.7076 0.6934
vn -0.1364 -0.7078 0.6931
vn -0.1363 -0.7075 0.6935
vn -0.5890 -0.3934 0.7059
vn -0.3978 -0.5953 0.6981
vn -0.3979 -0.5953 0.6980
vn -0.3979 -0.5953 0.6981
vn -0.6875 -0.1249 0.7153
vn -0.6877 -0.1249 0.7152
vn -0.6875 -0.1249 0.7154
vn 0.6928 -0.0000 0.7211
vn 0.6928 -0.0000 0.7212
vn 0.6931 -0.0000 0.7208
vn 0.1364 0.7079 0.6930
vn 0.1364 0.7080 0.6929
vn 0.1363 0.7078 0.6931
vn 0.5893 0.3939 0.7054
vn 0.5894 0.3939 0.7053
vn 0.3980 0.5957 0.6977
vn 0.3979 0.5957 0.6977
vn 0.6854 0.1355 0.7154
vn 0.6855 0.1355 0.7154
vn 0.5556 -0.8315 -0.0000
vn 0.9839 -0.1789 -0.0000
vn 0.1892 -0.9819 -0.0000
vn 0.8315 -0.5556 -0.0000
vn -0.5556 0.8315 -0.0000
vn -0.9810 0.1938 -0.0000
vn -0.1892 0.9819 -0.0000
vn -0.8315 0.5556 -0.0000
vn 0.6939 -0.0000 0.7201
vn 0.6936 -0.0000 0.7203
vn 0.1364 -0.7078 0.6931
vn 0.1363 -0.7076 0.6934
vn 0.1363 -0.7075 0.6934
vn 0.5890 -0.3934 0.7059
vn 0.3979 -0.5953 0.6981
vn 0.3978 -0.5953 0.6981
vn 0.6877 -0.1249 0.7152
vn 0.6875 -0.1249 0.7153
vn 0.6875 -0.1249 0.7154
vn -0.6928 -0.0000 0.7212
vn -0.6928 -0.0000 0.7211
vn -0.6931 -0.0000 0.7208
vn -0.1364 0.7080 0.6929
vn -0.1364 0.7079 0.6930
vn -0.1363 0.7079 0.6930
vn -0.5893 0.3939 0.7054
vn -0.5894 0.3939 0.7053
vn -0.3980 0.5957 0.6977
vn -0.3979 0.5957 0.6977
vn -0.6855 0.1355 0.7154
vn -0.6854 0.1355 0.7154
vn -0.6939 -0.0000 -0.7201
vn -0.6936 -0.0000 -0.7203
vn -0.1364 -0.7078 -0.6931
vn -0.1363 -0.7076 -0.6934
vn -0.1363 -0.7075 -0.6934
vn -0.5890 -0.3934 -0.7059
vn -0.3979 -0.5953 -0.6981
vn -0.3978 -0.5953 -0.6981
vn -0.6877 -0.1249 -0.7152
vn -0.6875 -0.1249 -0.7153
vn -0.6875 -0.1249 -0.7154
vn 0.6928 -0.0000 -0.7212
vn 0.6928 -0.0000 -0.7211
vn 0.6931 -0.0000 -0.7208
vn 0.1364 0.7080 -0.6929
vn 0.1364 0.7079 -0.6930
vn 0.1363 0.7079 -0.6930
vn 0.5893 0.3939 -0.7054
vn 0.5894 0.3939 -0.7053
vn 0.3980 0.5957 -0.6977
vn 0.3979 0.5957 -0.6977
vn 0.6855 0.1355 -0.7154
vn 0.6854 0.1355 -0.7154
vn 0.6939 -0.0000 -0.7201
vn 0.6936 -0.0000 -0.7203
vn 0.1363 -0.7076 -0.6934
vn 0.1364 -0.7078 -0.6931
vn 0.1363 -0.7075 -0.6935
vn 0.5890 -0.3934 -0.7059
vn 0.3978 -0.5953 -0.6981
vn 0.3979 -0.5953 -0.6980
vn 0.3979 -0.5953 -0.6981
vn 0.6875 -0.1249 -0.7153
vn 0.6877 -0.1249 -0.7152
vn 0.6875 -0.1249 -0.7154
vn -0.6928 -0.0000 -0.7211
vn -0.6928 -0.0000 -0.7212
vn -0.6931 -0.0000 -0.7208
vn -0.1364 0.7079 -0.6930
vn -0.1364 0.7080 -0.6929
vn -0.1363 0.7078 -0.6931
vn -0.5893 0.3939 -0.7054
vn -0.5894 0.3939 -0.7053
vn -0.3980 0.5957 -0.6977
vn -0.3979 0.5957 -0.6977
vn -0.6854 0.1355 -0.7154
vn -0.6855 0.1355 -0.7154
vn -0.1364 -0.7076 0.6933
vn -0.5891 -0.3935 0.7058
vn 0.6929 -0.0000 0.7210
vn 0.3980 0.5957 0.6976
vn 0.6854 0.1355 0.7155
vn 0.1364 -0.7076 0.6933
vn 0.5891 -0.3935 0.7058
vn -0.6929 -0.0000 0.7210
vn -0.3980 0.5957 0.6976
vn -0.6854 0.1355 0.7155
vn -0.1364 -0.7076 -0.6933
vn -0.5891 -0.3935 -0.7058
vn 0.6929 -0.0000 -0.7210
vn 0.3980 0.5957 -0.6976
vn 0.6854 0.1355 -0.7155
vn 0.1364 -0.7076 -0.6933
vn 0.5891 -0.3935 -0.7058
vn -0.6929 -0.0000 -0.7210
vn -0.3980 0.5957 -0.6976
vn -0.6854 0.1355 -0.7155
vt 0.052725 0.167868
vt 0.010140 0.054307
vt 0.052725 0.054307
vt 0.620528 0.054308
vt 0.663113 0.167868
vt 0.663113 0.054308
vt 0.133840 0.054307
vt 0.052725 0.011722
vt 0.133840 0.011722
vt 0.539413 0.167868
vt 0.620528 0.210453
vt 0.539413 0.210453
vt 0.133840 0.167868
vt 0.479310 0.712486
vt 0.435711 0.778312
vt 0.494581 0.836796
vt 0.575108 0.225969
vt 0.575108 0.632986
vt 0.575108 0.632987
vt 0.012838 0.632986
vt 0.012838 0.225969
vt 0.012838 0.632987
vt 0.093627 0.633050
vt 0.093162 0.225969
vt 0.093627 0.633050
vt 0.575108 0.836495
vt 0.575108 0.989127
vt 0.293973 0.837214
vt 0.012838 0.989127
vt 0.012838 0.836495
vt 0.370682 0.822210
vt 0.108636 0.712486
vt 0.093365 0.836796
vt 0.152235 0.778312
vt 0.494319 0.633050
vt 0.494581 0.836796
vt 0.575108 0.225969
vt 0.494319 0.633050
vt 0.575108 0.836495
vt 0.012838 0.836495
vt 0.093365 0.836796
vt 0.217264 0.822210
vt 0.494784 0.225969
vt 0.479310 0.712486
vt 0.435711 0.778312
vt 0.217264 0.822210
vt 0.108636 0.712486
vt 0.152235 0.778312
vt 0.620528 0.167868
vt 0.133840 0.210453
vt 0.052725 0.210453
vt 0.539414 0.011722
vt 0.620528 0.011722
vt 0.791719 0.352064
vt 0.764030 0.218437
vt 0.837089 0.332433
vt 0.650049 0.141854
vt 0.515973 0.166533
vt 0.515973 0.115596
vt 0.023019 0.166808
vt 0.515973 0.115596
vt 0.814144 0.459004
vt 0.865227 0.450691
vt 0.726737 0.254352
vt 0.603696 0.266286
vt 0.719209 0.262219
vt 0.674323 0.313447
vt 0.782081 0.356351
vt 0.721528 0.384058
vt 0.023049 0.250181
vt 0.515973 0.177524
vt 0.515973 0.250173
vt 0.625093 0.199301
vt 0.603696 0.266286
vt 0.791719 0.352064
vt 0.721528 0.384058
vt 0.803648 0.460522
vt 0.740206 0.468397
vt 0.629027 0.189023
vt 0.515973 0.166533
vt 0.726737 0.254352
vt 0.629027 0.189023
vt 0.515973 0.255586
vt 0.023049 0.255587
vt 0.716838 0.386204
vt 0.602055 0.271422
vt 0.670862 0.317397
vt 0.515974 0.255587
vt 0.023049 0.177516
vt 0.022748 0.118384
vt 0.515973 0.115596
vt 0.010140 0.139441
vt 0.010140 0.082734
vt 0.663113 0.139441
vt 0.663113 0.082735
vt 0.620528 0.082013
vt 0.052726 0.053587
vt 0.052726 0.082013
vt 0.010140 0.167868
vt 0.052725 0.139163
vt 0.620528 0.167589
vt 0.620528 0.139163
vt 0.012838 0.225969
vt 0.093162 0.225969
vt 0.494784 0.225969
vt 0.539413 0.054308
vt 0.735282 0.469008
vt 0.620528 0.053586
vt 0.052725 0.167590
s 1
usemtl Tavern_05.001
f 12/1/1 51/2/1 13/3/1
f 52/2/2 8/1/2 49/3/2
f 9/4/1 55/5/1 54/6/1
f 49/7/3 51/8/3 52/9/3
f 2/10/4 50/11/4 55/12/4
f 12/1/5 49/7/5 8/13/5
f 50/5/2 11/4/2 14/6/2
f 34/14/3 33/15/3 16/16/3
f 6/17/1 27/18/1 36/19/1
f 29/20/2 5/21/2 32/22/2
f 5/21/4 28/23/4 32/22/4
f 20/24/3 29/20/3 31/25/3
f 24/26/1 183/27/1 7/27/1
f 183/27/3 40/28/3 182/29/3
f 182/29/2 18/30/2 181/29/2
f 30/31/3 16/16/3 33/15/3
f 40/28/3 16/16/3 30/31/3
f 37/32/3 15/33/3 38/34/3
f 39/35/4 24/26/4 19/36/4
f 4/37/3 35/38/3 27/18/3
f 27/18/3 16/16/3 17/39/3
f 31/25/3 25/40/3 15/33/3
f 32/22/4 21/41/4 18/30/4
f 25/40/2 32/22/2 18/30/2
f 36/19/1 17/39/1 24/26/1
f 42/42/3 38/34/3 15/33/3
f 40/28/3 42/42/3 15/33/3
f 15/33/3 37/32/3 31/25/3
f 23/43/4 36/19/4 39/35/4
f 39/35/4 19/36/4 46/44/4
f 46/44/4 19/36/4 47/45/4
f 41/28/4 48/31/4 19/36/4
f 48/31/4 47/45/4 19/36/4
f 41/28/4 21/41/4 43/46/4
f 21/41/4 28/23/4 45/47/4
f 45/47/4 44/48/4 21/41/4
f 43/46/4 21/41/4 44/48/4
f 35/38/3 34/14/3 16/16/3
f 2/10/5 11/4/5 10/49/5
f 12/1/4 53/50/4 1/51/4
f 11/4/3 54/52/3 14/53/3
f 52/7/6 1/1/6 53/13/6
f 14/4/6 55/10/6 50/49/6
f 40/28/3 15/33/3 182/29/3
f 16/16/3 40/28/3 183/27/3
f 183/27/3 17/39/3 16/16/3
f 25/40/3 182/29/3 15/33/3
f 41/28/4 7/27/4 181/29/4
f 181/29/4 18/30/4 21/41/4
f 41/28/4 19/36/4 7/27/4
f 19/36/4 24/26/4 7/27/4
f 181/29/4 21/41/4 41/28/4
f 177/3/2 182/92/2 181/93/2
f 180/49/1 183/94/1 186/5/1
f 180/49/1 7/95/1 183/94/1
f 178/1/5 179/4/5 180/49/5
f 7/96/6 184/97/6 181/98/6
f 178/1/3 186/11/3 185/51/3
f 179/4/4 184/8/4 187/53/4
f 177/3/2 181/93/2 184/2/2
f 7/95/1 179/4/1 187/6/1
f 182/92/2 178/1/2 185/99/2
f 182/100/6 186/101/6 183/102/6
f 12/1/1 1/99/1 51/2/1
f 52/2/2 53/99/2 8/1/2
f 9/4/1 2/49/1 55/5/1
f 49/7/3 13/3/3 51/8/3
f 2/10/4 10/49/4 50/11/4
f 12/1/5 13/3/5 49/7/5
f 50/5/2 10/49/2 11/4/2
f 6/17/1 4/37/1 27/18/1
f 29/20/2 3/103/2 5/21/2
f 5/21/4 26/104/4 28/23/4
f 20/24/3 3/103/3 29/20/3
f 24/26/1 17/39/1 183/27/1
f 182/29/2 25/40/2 18/30/2
f 39/35/4 36/19/4 24/26/4
f 4/37/3 22/105/3 35/38/3
f 27/18/3 35/38/3 16/16/3
f 31/25/3 29/20/3 25/40/3
f 32/22/4 28/23/4 21/41/4
f 25/40/2 29/20/2 32/22/2
f 36/19/1 27/18/1 17/39/1
f 23/43/4 6/17/4 36/19/4
f 2/10/5 9/106/5 11/4/5
f 12/1/4 8/13/4 53/50/4
f 11/4/3 9/106/3 54/52/3
f 52/7/6 51/3/6 1/1/6
f 14/4/6 54/106/6 55/10/6
f 177/3/2 178/1/2 182/92/2
f 180/49/1 179/4/1 7/95/1
f 178/1/5 177/3/5 179/4/5
f 7/96/6 187/108/6 184/97/6
f 178/1/3 180/49/3 186/11/3
f 179/4/4 177/3/4 184/8/4
f 182/100/6 185/109/6 186/101/6
usemtl Dungeon_02_Mat
f 57/54/7 65/55/7 66/56/7
f 141/57/8 56/58/8 63/59/8
f 142/60/1 59/61/1 143/58/1
f 74/62/9 66/56/9 85/63/9
f 99/64/10 141/57/10 65/55/10
f 64/65/4 71/66/4 140/67/4
f 140/67/4 147/68/4 67/69/4
f 136/70/4 144/71/4 137/72/4
f 137/72/4 148/73/4 64/74/4
f 61/55/11 72/75/11 70/64/11
f 67/76/4 146/77/4 139/78/4
f 59/61/12 69/79/12 143/80/12
f 62/56/13 145/62/13 72/54/13
f 60/57/14 70/81/14 69/82/14
f 136/70/15 63/83/16 138/84/15
f 139/78/17 66/85/18 67/76/19
f 140/67/20 141/86/20 64/65/20
f 67/69/21 65/87/22 140/67/23
f 64/74/24 63/88/25 137/72/26
f 143/58/27 68/89/28 142/60/29
f 145/62/30 147/68/31 72/54/32
f 70/81/33 148/73/34 69/82/33
f 72/75/35 71/66/35 70/64/36
f 69/79/37 144/71/38 143/80/37
f 56/58/2 138/90/2 63/91/2
f 88/55/39 76/54/39 89/56/39
f 86/57/40 116/58/40 117/79/40
f 91/60/2 78/61/2 77/90/2
f 89/56/41 74/62/41 85/63/41
f 86/57/42 75/64/42 88/55/42
f 87/65/4 95/66/4 94/73/4
f 151/67/4 96/68/4 95/66/4
f 149/70/4 93/71/4 92/89/4
f 84/72/4 94/73/4 93/71/4
f 153/75/43 81/55/43 155/64/43
f 90/76/4 146/77/4 96/68/4
f 154/79/44 78/61/44 152/80/44
f 145/62/45 82/56/45 153/54/45
f 155/81/46 80/57/46 154/82/46
f 149/70/47 150/83/48 84/72/48
f 89/85/49 139/78/50 90/76/51
f 86/86/52 151/67/52 87/65/52
f 88/87/53 90/69/54 151/67/53
f 150/88/55 87/74/56 84/72/57
f 92/89/58 152/58/59 91/60/60
f 96/68/61 145/62/62 153/54/63
f 94/73/64 155/81/64 154/82/65
f 95/66/66 153/75/66 155/64/67
f 93/71/68 154/79/69 152/80/69
f 83/90/1 116/58/1 150/91/1
f 159/55/7 57/54/7 109/56/7
f 160/57/8 56/58/8 98/79/8
f 161/60/1 101/61/1 100/90/1
f 109/56/9 74/62/9 125/63/9
f 160/57/10 99/64/10 159/55/10
f 107/65/3 113/66/3 165/73/3
f 108/67/3 114/68/3 113/66/3
f 156/70/3 111/71/3 110/89/3
f 157/72/3 165/73/3 111/71/3
f 115/75/11 103/55/11 164/64/11
f 158/76/3 132/77/3 114/68/3
f 112/79/12 101/61/12 162/80/12
f 163/62/13 104/56/13 115/54/13
f 164/81/14 102/57/14 112/82/14
f 156/70/70 106/83/71 157/72/71
f 109/85/72 126/78/73 158/76/74
f 160/86/75 108/67/75 107/65/75
f 159/87/76 158/69/77 108/67/76
f 106/88/78 107/74/79 157/72/80
f 110/89/81 162/58/82 161/60/83
f 114/68/84 163/62/85 115/54/86
f 165/73/87 164/81/87 112/82/88
f 113/66/89 115/75/89 164/64/90
f 111/71/91 112/79/92 162/80/92
f 105/90/2 56/58/2 106/91/2
f 76/54/39 128/55/39 170/56/39
f 172/57/40 116/58/40 167/59/40
f 129/60/2 119/61/2 130/58/2
f 74/62/41 170/56/41 125/63/41
f 75/64/42 172/57/42 128/55/42
f 171/65/3 176/66/3 127/67/3
f 127/67/3 175/68/3 169/69/3
f 166/70/3 131/71/3 124/72/3
f 124/72/3 133/73/3 171/74/3
f 122/55/43 174/75/43 135/64/43
f 169/76/3 132/77/3 126/78/3
f 119/61/44 134/79/44 130/80/44
f 123/56/45 163/62/45 174/54/45
f 121/57/46 135/81/46 134/82/46
f 166/70/93 167/83/94 168/84/93
f 126/78/95 170/85/96 169/76/97
f 127/67/98 172/86/98 171/65/98
f 169/69/99 128/87/100 127/67/101
f 171/74/102 167/88/103 124/72/104
f 130/58/105 173/89/106 129/60/107
f 163/62/108 175/68/109 174/54/110
f 135/81/111 133/73/112 134/82/111
f 174/75/113 176/66/113 135/64/114
f 134/79/115 131/71/116 130/80/115
f 116/58/1 168/90/1 167/91/1
f 57/54/7 99/64/7 65/55/7
f 141/57/8 98/79/8 56/58/8
f 142/60/1 58/90/1 59/61/1
f 74/62/9 57/54/9 66/56/9
f 99/64/10 98/79/10 141/57/10
f 64/65/4 148/73/4 71/66/4
f 140/67/4 71/66/4 147/68/4
f 136/70/4 68/89/4 144/71/4
f 137/72/4 144/71/4 148/73/4
f 61/55/11 62/56/11 72/75/11
f 67/76/4 147/68/4 146/77/4
f 59/61/12 60/57/12 69/79/12
f 62/56/13 79/63/13 145/62/13
f 60/57/14 61/55/14 70/81/14
f 136/70/15 137/72/16 63/83/16
f 139/78/17 85/107/117 66/85/18
f 140/67/20 65/87/118 141/86/20
f 67/69/21 66/85/21 65/87/22
f 64/74/24 141/86/26 63/88/25
f 143/58/27 144/71/119 68/89/28
f 145/62/30 146/77/31 147/68/31
f 70/81/33 71/66/34 148/73/34
f 72/75/35 147/68/120 71/66/35
f 69/79/37 148/73/121 144/71/38
f 56/58/2 97/60/2 138/90/2
f 88/55/39 75/64/39 76/54/39
f 86/57/40 150/59/40 116/58/40
f 91/60/2 152/58/2 78/61/2
f 89/56/41 76/54/41 74/62/41
f 86/57/42 117/79/42 75/64/42
f 87/65/4 151/67/4 95/66/4
f 151/67/4 90/69/4 96/68/4
f 149/70/4 84/72/4 93/71/4
f 84/72/4 87/74/4 94/73/4
f 153/75/43 82/56/43 81/55/43
f 90/76/4 139/78/4 146/77/4
f 154/79/44 80/57/44 78/61/44
f 145/62/45 79/63/45 82/56/45
f 155/81/46 81/55/46 80/57/46
f 149/70/47 83/84/47 150/83/48
f 89/85/49 85/107/122 139/78/50
f 86/86/52 88/87/123 151/67/52
f 88/87/53 89/85/54 90/69/54
f 150/88/55 86/86/57 87/74/56
f 92/89/58 93/71/124 152/58/59
f 96/68/61 146/77/61 145/62/62
f 94/73/64 95/66/65 155/81/64
f 95/66/66 96/68/125 153/75/66
f 93/71/68 94/73/126 154/79/69
f 83/90/1 73/60/1 116/58/1
f 159/55/7 99/64/7 57/54/7
f 160/57/8 106/59/8 56/58/8
f 161/60/1 162/58/1 101/61/1
f 109/56/9 57/54/9 74/62/9
f 160/57/10 98/79/10 99/64/10
f 107/65/3 108/67/3 113/66/3
f 108/67/3 158/69/3 114/68/3
f 156/70/3 157/72/3 111/71/3
f 157/72/3 107/74/3 165/73/3
f 115/75/11 104/56/11 103/55/11
f 158/76/3 126/78/3 132/77/3
f 112/79/12 102/57/12 101/61/12
f 163/62/13 120/63/13 104/56/13
f 164/81/14 103/55/14 102/57/14
f 156/70/70 105/84/70 106/83/71
f 109/85/72 125/107/127 126/78/73
f 160/86/75 159/87/128 108/67/75
f 159/87/76 109/85/77 158/69/77
f 106/88/78 160/86/80 107/74/79
f 110/89/81 111/71/129 162/58/82
f 114/68/84 132/77/84 163/62/85
f 165/73/87 113/66/88 164/81/87
f 113/66/89 114/68/130 115/75/89
f 111/71/91 165/73/131 112/79/92
f 105/90/2 97/60/2 56/58/2
f 76/54/39 75/64/39 128/55/39
f 172/57/40 117/79/40 116/58/40
f 129/60/2 118/90/2 119/61/2
f 74/62/41 76/54/41 170/56/41
f 75/64/42 117/79/42 172/57/42
f 171/65/3 133/73/3 176/66/3
f 127/67/3 176/66/3 175/68/3
f 166/70/3 173/89/3 131/71/3
f 124/72/3 131/71/3 133/73/3
f 122/55/43 123/56/43 174/75/43
f 169/76/3 175/68/3 132/77/3
f 119/61/44 121/57/44 134/79/44
f 123/56/45 120/63/45 163/62/45
f 121/57/46 122/55/46 135/81/46
f 166/70/93 124/72/94 167/83/94
f 126/78/95 125/107/132 170/85/96
f 127/67/98 128/87/133 172/86/98
f 169/69/99 170/85/99 128/87/100
f 171/74/102 172/86/104 167/88/103
f 130/58/105 131/71/134 173/89/106
f 163/62/108 132/77/109 175/68/109
f 135/81/111 176/66/112 133/73/112
f 174/75/113 175/68/135 176/66/113
f 134/79/115 133/73/136 131/71/116
f 116/58/1 73/60/1 168/90/1
