# Blender 4.2.3 LTS
# www.blender.org
mtllib switch.mtl
o 立方体
v -3.000000 0.000000 3.000000
v -1.200000 6.000000 1.200000
v -3.000000 0.000000 -3.000000
v -1.200000 6.000000 -1.200000
v 3.000000 0.000000 3.000000
v 1.200000 6.000000 1.200000
v 3.000000 0.000000 -3.000000
v 1.200000 6.000000 -1.200000
v -3.000000 6.000000 3.000000
v -3.000000 6.000000 -3.000000
v 3.000000 6.000000 -3.000000
v 3.000000 6.000000 3.000000
v -1.200000 7.000000 1.200000
v -1.200000 7.000000 -1.200000
v 1.200000 7.000000 -1.200000
v 1.200000 7.000000 1.200000
vn -1.0000 -0.0000 -0.0000
vn -0.0000 -0.0000 -1.0000
vn 1.0000 -0.0000 -0.0000
vn -0.0000 -0.0000 1.0000
vn -0.0000 -1.0000 -0.0000
vn -0.0000 1.0000 -0.0000
vt 0.625000 0.000000
vt 0.375000 0.250000
vt 0.375000 0.000000
vt 0.625000 0.250000
vt 0.375000 0.500000
vt 0.625000 0.500000
vt 0.375000 0.750000
vt 0.625000 0.750000
vt 0.375000 1.000000
vt 0.125000 0.750000
vt 0.125000 0.500000
vt 0.700000 0.575000
vt 0.700000 0.675000
vt 0.800000 0.575000
vt 0.875000 0.750000
vt 0.800000 0.675000
vt 0.875000 0.500000
vt 0.625000 1.000000
s 0
usemtl マテリアル.003
f 8/12/3 16/13/3 6/13/3
f 14/14/6 16/13/6 15/12/6
f 2/16/1 14/14/1 4/14/1
f 6/13/4 13/16/4 2/16/4
f 4/14/2 15/12/2 8/12/2
f 8/12/3 15/12/3 16/13/3
f 14/14/6 13/16/6 16/13/6
f 2/16/1 13/16/1 14/14/1
f 6/13/4 16/13/4 13/16/4
f 4/14/2 14/14/2 15/12/2
usemtl マテリアル.004
f 9/1/1 3/2/1 1/3/1
f 10/4/2 7/5/2 3/2/2
f 11/6/3 5/7/3 7/5/3
f 12/8/4 1/9/4 5/7/4
f 7/5/5 1/10/5 3/11/5
f 4/14/6 9/15/6 2/16/6
f 8/12/6 10/17/6 4/14/6
f 6/13/6 11/6/6 8/12/6
f 2/16/6 12/8/6 6/13/6
f 9/1/1 10/4/1 3/2/1
f 10/4/2 11/6/2 7/5/2
f 11/6/3 12/8/3 5/7/3
f 12/8/4 9/18/4 1/9/4
f 7/5/5 5/7/5 1/10/5
f 4/14/6 10/17/6 9/15/6
f 8/12/6 11/6/6 10/17/6
f 6/13/6 12/8/6 11/6/6
f 2/16/6 9/15/6 12/8/6
