# Blender v2.79 (sub 0) OBJ File: ''
# www.blender.org
mtllib Touch.mtl
o 立方体
v -25.000000 0.000004 25.000000
v -25.000000 10.000004 25.000000
v -25.000000 -0.000004 -25.000000
v -25.000000 9.999996 -25.000000
v 25.000000 0.000004 25.000000
v 25.000000 10.000004 25.000000
v 25.000000 -0.000004 -25.000000
v 25.000000 9.999996 -25.000000
v -3.339738 66.410728 -10.791922
v 2.372926 92.079727 -2.541024
v 2.451435 78.491486 -12.256020
v 2.158173 87.305687 -8.964799
v 2.809520 68.530212 -11.590393
v 3.108889 61.743813 -7.906079
v 3.688128 58.380188 -2.902096
v 7.253000 82.873352 -8.973765
v 7.274058 69.251106 -9.846622
v 1.191048 92.569290 1.046544
v 6.204914 88.798096 -4.894464
v 11.708286 73.283531 -5.327941
v 12.596695 77.226517 1.747993
v 9.497772 63.776367 -2.751324
v 11.283663 83.965866 -0.039306
v 11.957851 69.822433 2.169657
v 8.969360 83.458206 6.931669
v 7.464618 89.584778 1.286172
v 9.572022 73.267944 8.125771
v 9.140025 64.699295 5.167994
v 4.543538 80.227066 11.531312
v 4.811576 67.820312 10.653375
v 4.686477 60.906788 6.333162
v 4.018224 58.086250 1.708167
v 2.299515 90.226959 6.289843
v -2.299736 80.385712 11.867690
v -1.095153 72.572853 12.698567
v -2.951210 64.368988 9.843416
v -3.353568 85.459686 9.851836
v -3.309901 59.872417 5.969906
v -2.481181 90.703545 5.352543
v -11.170282 76.732086 5.733793
v -8.234711 73.177422 9.833862
v -1.636274 57.455490 -0.268535
v -8.723111 84.633476 6.255921
v -6.935676 89.098961 3.207766
v -9.022851 64.490646 4.966492
v -12.304742 80.197021 0.611067
v -11.741035 68.404617 2.034045
v -9.327271 63.416321 -2.366461
v -5.561241 58.974899 -0.361044
v -11.703442 74.980042 -5.111398
v -9.393497 86.512024 -3.347587
v -3.485420 91.991646 -0.240032
v -2.528420 90.808037 -5.298404
v -7.558475 80.210754 -9.706484
v -9.111698 68.506050 -7.731391
v -3.717730 85.300446 -9.732503
v -2.613886 76.247238 -12.384264
v -3.353341 59.872112 -5.926716
v -5.000000 75.000000 4.999994
v -5.000000 75.000000 -5.000006
v 5.000000 75.000000 4.999994
v 5.000000 75.000000 -5.000006
v -5.000000 10.000001 5.000004
v -5.000000 9.999999 -4.999995
v 5.000000 9.999999 -4.999995
v 5.000000 10.000001 5.000004
vt 0.625000 0.000000
vt 0.375000 0.250000
vt 0.375000 0.000000
vt 0.625000 0.250000
vt 0.375000 0.500000
vt 0.625000 0.500000
vt 0.375000 0.750000
vt 0.625000 0.750000
vt 0.375000 1.000000
vt 0.125000 0.750000
vt 0.125000 0.500000
vt 0.875000 0.500000
vt 0.625000 1.000000
vt 0.875000 0.750000
vt 0.828169 0.181513
vt 0.618172 0.118268
vt 0.803482 0.029735
vt 0.713630 0.743016
vt 0.640455 0.637392
vt 0.721204 0.561533
vt 0.642591 0.405310
vt 0.713766 0.377197
vt 0.659331 0.901110
vt 0.609744 0.781531
vt 0.565607 0.470177
vt 0.546046 0.282548
vt 0.689098 0.234520
vt 0.471172 0.797056
vt 0.498731 0.650484
vt 0.478467 0.533799
vt 0.418036 0.120075
vt 0.374098 0.950679
vt 0.469690 0.406338
vt 0.421948 0.312847
vt 0.351362 0.216171
vt 0.453125 0.000000
vt 0.389282 0.469165
vt 0.391352 0.655330
vt 0.303843 0.823516
vt 0.320215 0.368721
vt 0.312060 0.592510
vt 0.238070 0.453468
vt 0.171741 0.183197
vt 0.221054 0.595265
vt 0.208642 0.306289
vt 0.079157 0.048815
vt 0.139508 0.469402
vt 0.170820 0.841342
vt 0.196230 0.698705
vt 0.084466 0.292801
vt 0.097495 0.674738
vt 0.076782 0.530835
vt 0.030469 0.383797
vt 0.022611 0.150359
vt 0.066931 0.793298
vt 0.012908 0.591332
vt 0.031154 0.911618
vt 0.000000 0.784407
vt 0.000000 0.273040
vt 0.996289 0.584928
vt 0.935049 0.500692
vt 0.992171 0.399333
vt 0.886871 0.383980
vt 0.942053 0.718160
vt 0.949425 0.148089
vt 0.959766 0.278455
vt 0.945396 0.911618
vt 0.820029 0.844678
vt 0.804501 0.694669
vt 0.858717 0.592813
vt 0.785227 0.524248
vt 0.828125 1.000000
vt 0.795836 0.343472
vt 0.625000 0.000000
vt 0.392857 0.250000
vt 0.392857 0.000000
vt 0.625000 0.250000
vt 0.392857 0.500000
vt 0.625000 0.500000
vt 0.392857 0.750000
vt 0.625000 0.750000
vt 0.392857 1.000000
vt 0.625000 1.000000
vn -1.0000 0.0000 0.0000
vn 0.0000 0.0000 -1.0000
vn 1.0000 0.0000 0.0000
vn 0.0000 0.0000 1.0000
vn 0.0000 -1.0000 0.0000
vn 0.0000 1.0000 -0.0000
vn -0.0301 -0.9225 -0.3849
vn 0.2966 0.3427 -0.8914
vn 0.3702 -0.0487 -0.9277
vn 0.2983 0.7613 -0.5757
vn 0.6915 0.0473 -0.7208
vn 0.6339 -0.5035 -0.5871
vn 0.5555 0.8031 -0.2154
vn 0.8033 0.4276 -0.4147
vn 0.9706 0.1366 -0.1980
vn 0.6788 -0.7282 -0.0950
vn 0.4290 0.9031 0.0181
vn 0.8942 -0.4383 0.0915
vn 0.6615 -0.6790 0.3185
vn 0.1356 -0.9881 -0.0727
vn 0.9152 -0.0562 0.3991
vn 0.8707 0.1077 0.4798
vn 0.4001 0.8653 0.3020
vn 0.6747 -0.2710 0.6866
vn 0.5826 0.6235 0.5214
vn 0.4275 0.4931 0.7577
vn 0.2819 -0.0617 0.9575
vn 0.0876 -0.8561 0.5094
vn 0.0514 0.1134 0.9922
vn 0.0526 -0.3388 0.9394
vn 0.1465 -0.5261 0.8377
vn 0.0503 -0.6541 0.7547
vn -0.0204 -0.9341 0.3564
vn -0.3690 0.0418 0.9285
vn 0.0115 0.9139 0.4058
vn -0.5377 0.2125 0.8159
vn -0.3792 -0.2265 0.8972
vn -0.5902 -0.3532 0.7259
vn -0.7201 0.1787 0.6705
vn -0.8620 -0.1553 0.4825
vn -0.8393 -0.2058 0.5032
vn -0.6285 -0.7072 0.3238
vn -0.8647 0.4690 0.1800
vn -0.6670 0.7438 -0.0434
vn -0.8531 -0.5100 0.1101
vn -0.9970 -0.0543 -0.0552
vn -0.9292 -0.2696 -0.2530
vn -0.9225 0.2320 -0.3084
vn -0.6253 -0.6926 -0.3597
vn -0.5655 0.7729 -0.2878
vn -0.6436 -0.5422 -0.5402
vn -0.5412 0.5951 -0.5940
vn -0.3131 0.2316 -0.9210
vn -0.0776 0.9841 -0.1598
vn -0.1184 0.6381 -0.7608
vn 0.0030 0.3499 -0.9368
vn -0.0749 -0.1540 -0.9852
vn 0.0496 -0.4748 -0.8787
vn 0.0667 -0.8245 -0.5619
vn 0.0539 -0.0646 -0.9965
vn 0.1284 0.7939 -0.5943
vn 0.5287 0.0551 -0.8470
vn 0.3880 -0.4265 -0.8171
vn 0.4803 0.5535 -0.6804
vn 0.5988 -0.6309 -0.4934
vn 0.8034 -0.3225 -0.5006
vn 0.8724 0.2443 -0.4234
vn 0.7779 0.5837 -0.2328
vn 0.9526 -0.2630 -0.1531
vn 0.9932 -0.0899 -0.0746
vn 0.7574 -0.6438 0.1092
vn 0.8626 -0.2034 0.4632
vn 0.8192 0.4843 0.3072
vn 0.9099 0.2625 0.3212
vn 0.5121 -0.0496 0.8575
vn 0.5619 -0.4457 0.6969
vn 0.6694 0.1254 0.7322
vn 0.0542 0.3784 0.9241
vn -0.5063 0.6116 0.6080
vn -0.5068 0.6111 0.6080
vn -0.5017 0.6156 0.6077
vn -0.0815 0.6568 0.7497
vn 0.1367 0.4838 0.8644
vn -0.1867 0.9495 0.2522
vn -0.5041 -0.0930 -0.8586
vn -0.5123 -0.0837 -0.8547
vn -0.4949 -0.1031 -0.8628
vn -0.5396 -0.5244 0.6587
vn -0.5659 0.2237 0.7936
vn -0.3544 -0.9000 0.2536
vn -0.4406 0.8543 0.2759
vn -0.8944 0.2526 0.3690
vn -0.9792 -0.0225 0.2016
vn -0.8654 0.4829 0.1339
vn -0.7835 -0.6094 0.1218
vn -0.9393 -0.2293 -0.2553
vn -0.8414 0.2424 -0.4830
vn -0.7323 -0.0177 -0.6807
vn -0.3408 -0.8975 -0.2799
vn -0.5403 -0.5016 -0.6756
vn -0.6172 0.4625 -0.6365
vn -0.1112 0.9628 -0.2463
vn -0.0727 -0.5953 -0.8002
vn -0.0950 0.2691 -0.9584
vn -0.5115 0.6070 0.6082
vn -0.5204 -0.0745 -0.8507
usemtl Material.001
s 1
f 2/1/1 3/2/1 1/3/1
f 4/4/2 7/5/2 3/2/2
f 8/6/3 5/7/3 7/5/3
f 6/8/4 1/9/4 5/7/4
f 7/5/5 1/10/5 3/11/5
f 4/12/6 6/8/6 8/6/6
f 2/1/1 4/4/1 3/2/1
f 4/4/2 8/6/2 7/5/2
f 8/6/3 6/8/3 5/7/3
f 6/8/4 2/13/4 1/9/4
f 7/5/5 5/7/5 1/10/5
f 4/12/6 2/14/6 6/8/6
usemtl マテリアル.001
f 58/15/7 15/16/7 42/17/7
f 12/18/8 16/19/8 11/20/8
f 11/20/9 17/21/9 13/22/9
f 10/23/10 19/24/10 12/18/10
f 17/21/11 16/19/11 20/25/11
f 17/21/12 22/26/12 14/27/12
f 10/23/13 26/28/13 19/24/13
f 16/19/14 19/24/14 23/29/14
f 20/25/15 23/29/15 21/30/15
f 15/16/16 22/26/16 32/31/16
f 10/23/17 18/32/17 26/28/17
f 22/26/18 24/33/18 28/34/18
f 32/31/19 28/34/19 31/35/19
f 42/36/20 15/16/20 32/31/20
f 21/30/21 27/37/21 24/33/21
f 21/30/22 25/38/22 27/37/22
f 18/32/23 33/39/23 26/28/23
f 27/37/24 30/40/24 28/34/24
f 26/28/25 33/39/25 25/38/25
f 25/38/26 33/39/26 29/41/26
f 29/41/27 35/42/27 30/40/27
f 31/35/28 38/43/28 32/31/28
f 29/41/29 34/44/29 35/42/29
f 30/40/30 35/42/30 36/45/30
f 30/40/31 36/45/31 31/35/31
f 31/35/32 36/45/32 38/43/32
f 38/43/33 42/46/33 32/31/33
f 35/42/34 34/44/34 41/47/34
f 33/39/35 18/32/35 39/48/35
f 34/44/36 37/49/36 41/47/36
f 35/42/37 41/47/37 36/45/37
f 36/45/38 41/47/38 45/50/38
f 41/47/39 43/51/39 40/52/39
f 40/52/40 47/53/40 41/47/40
f 41/47/41 47/53/41 45/50/41
f 38/43/42 45/50/42 49/54/42
f 43/51/43 44/55/43 46/56/43
f 44/55/44 52/57/44 51/58/44
f 47/53/45 48/59/45 45/50/45
f 46/60/46 50/61/46 47/62/46
f 50/61/47 55/63/47 47/62/47
f 46/60/48 51/64/48 50/61/48
f 49/65/49 48/66/49 58/15/49
f 52/67/50 53/68/50 51/64/50
f 55/63/51 58/15/51 48/66/51
f 53/68/52 56/69/52 51/64/52
f 54/70/53 56/69/53 57/71/53
f 52/67/54 18/72/54 10/23/54
f 56/69/55 53/68/55 12/18/55
f 56/69/56 12/18/56 11/20/56
f 57/71/57 13/22/57 9/73/57
f 9/73/58 13/22/58 14/27/58
f 58/15/59 14/27/59 15/16/59
f 57/71/60 11/20/60 13/22/60
f 53/68/61 10/23/61 12/18/61
f 11/20/62 16/19/62 17/21/62
f 14/27/63 13/22/63 17/21/63
f 12/18/64 19/24/64 16/19/64
f 14/27/65 22/26/65 15/16/65
f 22/26/66 17/21/66 20/25/66
f 20/25/67 16/19/67 23/29/67
f 23/29/68 19/24/68 26/28/68
f 22/26/69 20/25/69 24/33/69
f 20/25/70 21/30/70 24/33/70
f 32/31/71 22/26/71 28/34/71
f 24/33/72 27/37/72 28/34/72
f 23/29/73 26/28/73 25/38/73
f 21/30/74 23/29/74 25/38/74
f 27/37/75 29/41/75 30/40/75
f 28/34/76 30/40/76 31/35/76
f 27/37/77 25/38/77 29/41/77
f 29/41/78 37/49/78 34/44/78
f 37/49/79 44/55/80 43/51/81
f 33/39/82 39/48/82 37/49/82
f 29/41/83 33/39/83 37/49/83
f 18/32/84 52/57/84 39/48/84
f 55/63/85 57/71/86 9/73/87
f 36/45/88 45/50/88 38/43/88
f 41/47/89 37/49/89 43/51/89
f 38/43/90 49/54/90 42/46/90
f 39/48/91 52/57/91 44/55/91
f 40/52/92 43/51/92 46/56/92
f 40/52/93 46/56/93 47/53/93
f 46/56/94 44/55/94 51/58/94
f 49/54/95 45/50/95 48/59/95
f 48/66/96 47/62/96 55/63/96
f 50/61/97 51/64/97 54/70/97
f 50/61/98 54/70/98 55/63/98
f 49/65/99 58/15/99 42/17/99
f 55/63/100 9/73/100 58/15/100
f 54/70/101 51/64/101 56/69/101
f 53/68/102 52/67/102 10/23/102
f 58/15/103 9/73/103 14/27/103
f 57/71/104 56/69/104 11/20/104
f 37/49/79 39/48/105 44/55/80
f 55/63/85 54/70/106 57/71/86
usemtl マテリアル
f 59/74/1 64/75/1 63/76/1
f 60/77/2 65/78/2 64/75/2
f 62/79/3 66/80/3 65/78/3
f 61/81/4 63/82/4 66/80/4
f 59/74/1 60/77/1 64/75/1
f 60/77/2 62/79/2 65/78/2
f 62/79/3 61/81/3 66/80/3
f 61/81/4 59/83/4 63/82/4
