# Blender 4.2.3 LTS
# www.blender.org
mtllib wall.mtl
o 立方体.001
v -70.000000 0.000000 60.000000
v -70.000000 30.000000 60.000000
v -70.000000 0.000000 30.000000
v -70.000000 30.000000 30.000000
v 90.000000 0.000000 60.000000
v 90.000000 30.000000 60.000000
v 90.000000 0.000000 30.000000
v 90.000000 30.000000 30.000000
vn -1.0000 -0.0000 -0.0000
vn -0.0000 -0.0000 -1.0000
vn 1.0000 -0.0000 -0.0000
vn -0.0000 -0.0000 1.0000
vn -0.0000 -1.0000 -0.0000
vn -0.0000 1.0000 -0.0000
vt 0.625000 0.000000
vt 0.375000 0.250000
vt 0.375000 0.000000
vt 0.625000 0.250000
vt 0.375000 0.500000
vt 0.625000 0.500000
vt 0.375000 0.750000
vt 0.625000 0.750000
vt 0.375000 1.000000
vt 0.125000 0.750000
vt 0.125000 0.500000
vt 0.875000 0.500000
vt 0.625000 1.000000
vt 0.875000 0.750000
s 0
usemtl マテリアル.006
f 2/1/1 3/2/1 1/3/1
f 4/4/2 7/5/2 3/2/2
f 8/6/3 5/7/3 7/5/3
f 6/8/4 1/9/4 5/7/4
f 7/5/5 1/10/5 3/11/5
f 4/12/6 6/8/6 8/6/6
f 2/1/1 4/4/1 3/2/1
f 4/4/2 8/6/2 7/5/2
f 8/6/3 6/8/3 5/7/3
f 6/8/4 2/13/4 1/9/4
f 7/5/5 5/7/5 1/10/5
f 4/12/6 2/14/6 6/8/6
o 立方体.002
v 140.179001 0.000000 280.000000
v 140.179001 30.000000 280.000000
v 140.179001 0.000000 -20.000000
v 140.179001 30.000000 -20.000000
v 170.179001 0.000000 280.000000
v 170.179001 30.000000 280.000000
v 170.179001 0.000000 -20.000000
v 170.179001 30.000000 -20.000000
vn -1.0000 -0.0000 -0.0000
vn -0.0000 -0.0000 -1.0000
vn 1.0000 -0.0000 -0.0000
vn -0.0000 -1.0000 -0.0000
vn -0.0000 1.0000 -0.0000
vt 0.625000 0.000000
vt 0.375000 0.250000
vt 0.375000 0.000000
vt 0.625000 0.250000
vt 0.375000 0.500000
vt 0.625000 0.500000
vt 0.375000 0.750000
vt 0.125000 0.750000
vt 0.125000 0.500000
vt 0.875000 0.500000
vt 0.625000 0.750000
vt 0.875000 0.750000
s 0
usemtl マテリアル.006
f 10/15/7 11/16/7 9/17/7
f 12/18/8 15/19/8 11/16/8
f 16/20/9 13/21/9 15/19/9
f 15/19/10 9/22/10 11/23/10
f 12/24/11 14/25/11 16/20/11
f 10/15/7 12/18/7 11/16/7
f 12/18/8 16/20/8 15/19/8
f 16/20/9 14/25/9 13/21/9
f 15/19/10 13/21/10 9/22/10
f 12/24/11 10/26/11 14/25/11
o 立方体.003
v -200.000000 0.000000 240.000000
v -200.000000 30.000000 240.000000
v -200.000000 0.000000 210.000000
v -200.000000 30.000000 210.000000
v -60.000000 0.000000 240.000000
v -60.000000 30.000000 240.000000
v -60.000000 0.000000 210.000000
v -60.000000 30.000000 210.000000
vn -0.0000 -0.0000 -1.0000
vn 1.0000 -0.0000 -0.0000
vn -0.0000 -0.0000 1.0000
vn -0.0000 -1.0000 -0.0000
vn -0.0000 1.0000 -0.0000
vt 0.625000 0.250000
vt 0.375000 0.500000
vt 0.375000 0.250000
vt 0.625000 0.500000
vt 0.375000 0.750000
vt 0.625000 0.750000
vt 0.375000 1.000000
vt 0.125000 0.750000
vt 0.125000 0.500000
vt 0.875000 0.500000
vt 0.625000 1.000000
vt 0.875000 0.750000
s 0
usemtl マテリアル.006
f 20/27/12 23/28/12 19/29/12
f 24/30/13 21/31/13 23/28/13
f 22/32/14 17/33/14 21/31/14
f 23/28/15 17/34/15 19/35/15
f 20/36/16 22/32/16 24/30/16
f 20/27/12 24/30/12 23/28/12
f 24/30/13 22/32/13 21/31/13
f 22/32/14 18/37/14 17/33/14
f 23/28/15 21/31/15 17/34/15
f 20/36/16 18/38/16 22/32/16
o 立方体.004
v 100.000000 0.000000 160.000000
v 100.000000 30.000000 160.000000
v 100.000000 0.000000 130.000000
v 100.000000 30.000000 130.000000
v 140.000000 0.000000 160.000000
v 140.000000 30.000000 160.000000
v 140.000000 0.000000 130.000000
v 140.000000 30.000000 130.000000
vn -1.0000 -0.0000 -0.0000
vn -0.0000 -0.0000 -1.0000
vn -0.0000 -0.0000 1.0000
vn -0.0000 -1.0000 -0.0000
vn -0.0000 1.0000 -0.0000
vt 0.625000 0.000000
vt 0.375000 0.250000
vt 0.375000 0.000000
vt 0.625000 0.250000
vt 0.375000 0.500000
vt 0.625000 0.750000
vt 0.375000 1.000000
vt 0.375000 0.750000
vt 0.125000 0.750000
vt 0.125000 0.500000
vt 0.875000 0.500000
vt 0.625000 0.500000
vt 0.625000 1.000000
vt 0.875000 0.750000
s 0
usemtl マテリアル.006
f 26/39/17 27/40/17 25/41/17
f 28/42/18 31/43/18 27/40/18
f 30/44/19 25/45/19 29/46/19
f 31/43/20 25/47/20 27/48/20
f 28/49/21 30/44/21 32/50/21
f 26/39/17 28/42/17 27/40/17
f 28/42/18 32/50/18 31/43/18
f 30/44/19 26/51/19 25/45/19
f 31/43/20 29/46/20 25/47/20
f 28/49/21 26/52/21 30/44/21
o 立方体.005
v -170.000000 0.000000 160.000000
v -170.000000 30.000000 160.000000
v -170.000000 0.000000 130.000000
v -170.000000 30.000000 130.000000
v 50.000000 0.000000 160.000000
v 50.000000 30.000000 160.000000
v 50.000000 0.000000 130.000000
v 50.000000 30.000000 130.000000
vn -1.0000 -0.0000 -0.0000
vn -0.0000 -0.0000 -1.0000
vn 1.0000 -0.0000 -0.0000
vn -0.0000 -0.0000 1.0000
vn -0.0000 -1.0000 -0.0000
vn -0.0000 1.0000 -0.0000
vt 0.625000 0.000000
vt 0.375000 0.250000
vt 0.375000 0.000000
vt 0.625000 0.250000
vt 0.375000 0.500000
vt 0.625000 0.500000
vt 0.375000 0.750000
vt 0.625000 0.750000
vt 0.375000 1.000000
vt 0.125000 0.750000
vt 0.125000 0.500000
vt 0.875000 0.500000
vt 0.625000 1.000000
vt 0.875000 0.750000
s 0
usemtl マテリアル.006
f 34/53/22 35/54/22 33/55/22
f 36/56/23 39/57/23 35/54/23
f 40/58/24 37/59/24 39/57/24
f 38/60/25 33/61/25 37/59/25
f 39/57/26 33/62/26 35/63/26
f 36/64/27 38/60/27 40/58/27
f 34/53/22 36/56/22 35/54/22
f 36/56/23 40/58/23 39/57/23
f 40/58/24 38/60/24 37/59/24
f 38/60/25 34/65/25 33/61/25
f 39/57/26 37/59/26 33/62/26
f 36/64/27 34/66/27 38/60/27
o 立方体.006
v -150.000000 0.000000 130.500000
v -150.000000 30.000000 130.500000
v -150.000000 0.000000 20.500000
v -150.000000 30.000000 20.500000
v -120.000000 0.000000 130.500000
v -120.000000 30.000000 130.500000
v -120.000000 0.000000 20.500000
v -120.000000 30.000000 20.500000
vn -1.0000 -0.0000 -0.0000
vn -0.0000 -0.0000 -1.0000
vn 1.0000 -0.0000 -0.0000
vn -0.0000 -1.0000 -0.0000
vn -0.0000 1.0000 -0.0000
vt 0.625000 0.000000
vt 0.375000 0.250000
vt 0.375000 0.000000
vt 0.625000 0.250000
vt 0.375000 0.500000
vt 0.625000 0.500000
vt 0.375000 0.750000
vt 0.125000 0.750000
vt 0.125000 0.500000
vt 0.875000 0.500000
vt 0.625000 0.750000
vt 0.875000 0.750000
s 0
usemtl マテリアル.006
f 42/67/28 43/68/28 41/69/28
f 44/70/29 47/71/29 43/68/29
f 48/72/30 45/73/30 47/71/30
f 47/71/31 41/74/31 43/75/31
f 44/76/32 46/77/32 48/72/32
f 42/67/28 44/70/28 43/68/28
f 44/70/29 48/72/29 47/71/29
f 48/72/30 46/77/30 45/73/30
f 47/71/31 45/73/31 41/74/31
f 44/76/32 42/78/32 46/77/32
o 立方体.007
v -150.000000 0.000000 430.000000
v -150.000000 30.000000 430.000000
v -150.000000 0.000000 400.000000
v -150.000000 30.000000 400.000000
v -20.000000 0.000000 430.000000
v -20.000000 30.000000 430.000000
v -20.000000 0.000000 400.000000
v -20.000000 30.000000 400.000000
vn -1.0000 -0.0000 -0.0000
vn -0.0000 -0.0000 -1.0000
vn 1.0000 -0.0000 -0.0000
vn -0.0000 -0.0000 1.0000
vn -0.0000 -1.0000 -0.0000
vn -0.0000 1.0000 -0.0000
vt 0.625000 0.000000
vt 0.375000 0.250000
vt 0.375000 0.000000
vt 0.625000 0.250000
vt 0.375000 0.500000
vt 0.625000 0.500000
vt 0.375000 0.750000
vt 0.625000 0.750000
vt 0.375000 1.000000
vt 0.125000 0.750000
vt 0.125000 0.500000
vt 0.875000 0.500000
vt 0.625000 1.000000
vt 0.875000 0.750000
s 0
usemtl マテリアル.006
f 50/79/33 51/80/33 49/81/33
f 52/82/34 55/83/34 51/80/34
f 56/84/35 53/85/35 55/83/35
f 54/86/36 49/87/36 53/85/36
f 55/83/37 49/88/37 51/89/37
f 52/90/38 54/86/38 56/84/38
f 50/79/33 52/82/33 51/80/33
f 52/82/34 56/84/34 55/83/34
f 56/84/35 54/86/35 53/85/35
f 54/86/36 50/91/36 49/87/36
f 55/83/37 53/85/37 49/88/37
f 52/90/38 50/92/38 54/86/38
o 立方体.008
v -150.000000 0.000000 400.000000
v -150.000000 30.000000 400.000000
v -150.000000 0.000000 370.000000
v -150.000000 30.000000 370.000000
v -120.000000 0.000000 400.000000
v -120.000000 30.000000 400.000000
v -120.000000 0.000000 370.000000
v -120.000000 30.000000 370.000000
vn -1.0000 -0.0000 -0.0000
vn 1.0000 -0.0000 -0.0000
vn -0.0000 -1.0000 -0.0000
vn -0.0000 1.0000 -0.0000
vt 0.625000 0.000000
vt 0.375000 0.250000
vt 0.375000 0.000000
vt 0.625000 0.500000
vt 0.375000 0.750000
vt 0.375000 0.500000
vt 0.125000 0.750000
vt 0.125000 0.500000
vt 0.875000 0.500000
vt 0.625000 0.750000
vt 0.625000 0.250000
vt 0.875000 0.750000
s 0
usemtl マテリアル.006
f 58/93/39 59/94/39 57/95/39
f 64/96/40 61/97/40 63/98/40
f 63/98/41 57/99/41 59/100/41
f 60/101/42 62/102/42 64/96/42
f 58/93/39 60/103/39 59/94/39
f 64/96/40 62/102/40 61/97/40
f 63/98/41 61/97/41 57/99/41
f 60/101/42 58/104/42 62/102/42
o 立方体.009
v -150.000000 0.000000 370.000000
v -150.000000 30.000000 370.000000
v -150.000000 0.000000 340.000000
v -150.000000 30.000000 340.000000
v -60.000000 0.000000 370.000000
v -60.000000 30.000000 370.000000
v -60.000000 0.000000 340.000000
v -60.000000 30.000000 340.000000
vn -1.0000 -0.0000 -0.0000
vn -0.0000 -0.0000 -1.0000
vn 1.0000 -0.0000 -0.0000
vn -0.0000 -0.0000 1.0000
vn -0.0000 -1.0000 -0.0000
vn -0.0000 1.0000 -0.0000
vt 0.625000 0.000000
vt 0.375000 0.250000
vt 0.375000 0.000000
vt 0.625000 0.250000
vt 0.375000 0.500000
vt 0.625000 0.500000
vt 0.375000 0.750000
vt 0.625000 0.750000
vt 0.375000 1.000000
vt 0.125000 0.750000
vt 0.125000 0.500000
vt 0.875000 0.500000
vt 0.625000 1.000000
vt 0.875000 0.750000
s 0
usemtl マテリアル.006
f 66/105/43 67/106/43 65/107/43
f 68/108/44 71/109/44 67/106/44
f 72/110/45 69/111/45 71/109/45
f 70/112/46 65/113/46 69/111/46
f 71/109/47 65/114/47 67/115/47
f 68/116/48 70/112/48 72/110/48
f 66/105/43 68/108/43 67/106/43
f 68/108/44 72/110/44 71/109/44
f 72/110/45 70/112/45 69/111/45
f 70/112/46 66/117/46 65/113/46
f 71/109/47 69/111/47 65/114/47
f 68/116/48 66/118/48 70/112/48
o 立方体
v 110.025391 0.000000 420.000000
v 110.025391 30.000000 420.000000
v 110.025391 0.000000 310.000000
v 110.025391 30.000000 310.000000
v 150.025391 0.000000 420.000000
v 150.025391 30.000000 420.000000
v 150.025391 0.000000 310.000000
v 150.025391 30.000000 310.000000
vn -1.0000 -0.0000 -0.0000
vn 1.0000 -0.0000 -0.0000
vn -0.0000 -0.0000 1.0000
vn -0.0000 -1.0000 -0.0000
vn -0.0000 1.0000 -0.0000
vt 0.625000 0.000000
vt 0.375000 0.250000
vt 0.375000 0.000000
vt 0.625000 0.500000
vt 0.375000 0.750000
vt 0.375000 0.500000
vt 0.625000 0.750000
vt 0.375000 1.000000
vt 0.125000 0.750000
vt 0.125000 0.500000
vt 0.875000 0.500000
vt 0.625000 0.250000
vt 0.625000 1.000000
vt 0.875000 0.750000
s 0
usemtl マテリアル.006
f 74/119/49 75/120/49 73/121/49
f 80/122/50 77/123/50 79/124/50
f 78/125/51 73/126/51 77/123/51
f 79/124/52 73/127/52 75/128/52
f 76/129/53 78/125/53 80/122/53
f 74/119/49 76/130/49 75/120/49
f 80/122/50 78/125/50 77/123/50
f 78/125/51 74/131/51 73/126/51
f 79/124/52 77/123/52 73/127/52
f 76/129/53 74/132/53 78/125/53
o 立方体.011
v 110.000000 0.000000 310.000000
v 110.000000 30.000000 310.000000
v 110.000000 0.000000 280.000000
v 110.000000 30.000000 280.000000
v 200.000000 0.000000 310.000000
v 200.000000 30.000000 310.000000
v 200.000000 0.000000 280.000000
v 200.000000 30.000000 280.000000
vn -1.0000 -0.0000 -0.0000
vn -0.0000 -0.0000 -1.0000
vn -0.0000 -0.0000 1.0000
vn -0.0000 -1.0000 -0.0000
vn -0.0000 1.0000 -0.0000
vt 0.625000 0.000000
vt 0.375000 0.250000
vt 0.375000 0.000000
vt 0.625000 0.250000
vt 0.375000 0.500000
vt 0.625000 0.750000
vt 0.375000 1.000000
vt 0.375000 0.750000
vt 0.125000 0.750000
vt 0.125000 0.500000
vt 0.875000 0.500000
vt 0.625000 0.500000
vt 0.625000 1.000000
vt 0.875000 0.750000
s 0
usemtl マテリアル.006
f 82/133/54 83/134/54 81/135/54
f 84/136/55 87/137/55 83/134/55
f 86/138/56 81/139/56 85/140/56
f 87/137/57 81/141/57 83/142/57
f 84/143/58 86/138/58 88/144/58
f 82/133/54 84/136/54 83/134/54
f 84/136/55 88/144/55 87/137/55
f 86/138/56 82/145/56 81/139/56
f 87/137/57 85/140/57 81/141/57
f 84/143/58 82/146/58 86/138/58
o 立方体.012
v 30.000000 0.000000 480.000000
v 30.000000 30.000000 480.000000
v 30.000000 0.000000 360.000000
v 30.000000 30.000000 360.000000
v 60.000000 0.000000 480.000000
v 60.000000 30.000000 480.000000
v 60.000000 0.000000 360.000000
v 60.000000 30.000000 360.000000
vn -1.0000 -0.0000 -0.0000
vn -0.0000 -0.0000 -1.0000
vn 1.0000 -0.0000 -0.0000
vn -0.0000 -1.0000 -0.0000
vn -0.0000 1.0000 -0.0000
vt 0.625000 0.000000
vt 0.375000 0.250000
vt 0.375000 0.000000
vt 0.625000 0.250000
vt 0.375000 0.500000
vt 0.625000 0.500000
vt 0.375000 0.750000
vt 0.125000 0.750000
vt 0.125000 0.500000
vt 0.875000 0.500000
vt 0.625000 0.750000
vt 0.875000 0.750000
s 0
usemtl マテリアル.006
f 90/147/59 91/148/59 89/149/59
f 92/150/60 95/151/60 91/148/60
f 96/152/61 93/153/61 95/151/61
f 95/151/62 89/154/62 91/155/62
f 92/156/63 94/157/63 96/152/63
f 90/147/59 92/150/59 91/148/59
f 92/150/60 96/152/60 95/151/60
f 96/152/61 94/157/61 93/153/61
f 95/151/62 93/153/62 89/154/62
f 92/156/63 90/158/63 94/157/63
o 立方体.013
v -10.000000 0.000000 240.000000
v -10.000000 30.000000 240.000000
v -10.000000 0.000000 210.000000
v -10.000000 30.000000 210.000000
v 80.000000 0.000000 240.000000
v 80.000000 30.000000 240.000000
v 80.000000 0.000000 210.000000
v 80.000000 30.000000 210.000000
vn -1.0000 -0.0000 -0.0000
vn -0.0000 -0.0000 -1.0000
vn 1.0000 -0.0000 -0.0000
vn -0.0000 -0.0000 1.0000
vn -0.0000 -1.0000 -0.0000
vn -0.0000 1.0000 -0.0000
vt 0.625000 0.000000
vt 0.375000 0.250000
vt 0.375000 0.000000
vt 0.625000 0.250000
vt 0.375000 0.500000
vt 0.625000 0.500000
vt 0.375000 0.750000
vt 0.625000 0.750000
vt 0.375000 1.000000
vt 0.125000 0.750000
vt 0.125000 0.500000
vt 0.875000 0.500000
vt 0.625000 1.000000
vt 0.875000 0.750000
s 0
usemtl マテリアル.006
f 98/159/64 99/160/64 97/161/64
f 100/162/65 103/163/65 99/160/65
f 104/164/66 101/165/66 103/163/66
f 102/166/67 97/167/67 101/165/67
f 103/163/68 97/168/68 99/169/68
f 100/170/69 102/166/69 104/164/69
f 98/159/64 100/162/64 99/160/64
f 100/162/65 104/164/65 103/163/65
f 104/164/66 102/166/66 101/165/66
f 102/166/67 98/171/67 97/167/67
f 103/163/68 101/165/68 97/168/68
f 100/170/69 98/172/69 102/166/69
o 立方体.016
v -60.000000 0.000000 160.000000
v -60.000000 30.000000 160.000000
v -60.000000 0.000000 180.000000
v -60.000000 30.000000 180.000000
v -90.000000 0.000000 160.000000
v -90.000000 30.000000 160.000000
v -90.000000 0.000000 180.000000
v -90.000000 30.000000 180.000000
vn 1.0000 -0.0000 -0.0000
vn -0.0000 -0.0000 1.0000
vn -1.0000 -0.0000 -0.0000
vn -0.0000 -1.0000 -0.0000
vn -0.0000 1.0000 -0.0000
vt 0.625000 0.000000
vt 0.375000 0.250000
vt 0.375000 0.000000
vt 0.625000 0.250000
vt 0.375000 0.500000
vt 0.625000 0.500000
vt 0.375000 0.750000
vt 0.125000 0.750000
vt 0.125000 0.500000
vt 0.875000 0.500000
vt 0.625000 0.750000
vt 0.875000 0.750000
s 0
usemtl マテリアル.023
f 106/173/70 107/174/70 105/175/70
f 108/176/71 111/177/71 107/174/71
f 112/178/72 109/179/72 111/177/72
f 111/177/73 105/180/73 107/181/73
f 108/182/74 110/183/74 112/178/74
f 106/173/70 108/176/70 107/174/70
f 108/176/71 112/178/71 111/177/71
f 112/178/72 110/183/72 109/179/72
f 111/177/73 109/179/73 105/180/73
f 108/182/74 106/184/74 110/183/74
o 立方体.017
v -120.000000 0.000000 290.000000
v -120.000000 30.000000 290.000000
v -150.000000 0.000000 290.000000
v -150.000000 30.000000 290.000000
v -120.000000 0.000000 240.000000
v -120.000000 30.000000 240.000000
v -150.000000 0.000000 240.000000
v -150.000000 30.000000 240.000000
vn -0.0000 -0.0000 1.0000
vn -1.0000 -0.0000 -0.0000
vn 1.0000 -0.0000 -0.0000
vn -0.0000 -1.0000 -0.0000
vn -0.0000 1.0000 -0.0000
vt 0.625000 0.000000
vt 0.375000 0.250000
vt 0.375000 0.000000
vt 0.625000 0.250000
vt 0.375000 0.500000
vt 0.625000 0.750000
vt 0.375000 1.000000
vt 0.375000 0.750000
vt 0.125000 0.750000
vt 0.125000 0.500000
vt 0.875000 0.500000
vt 0.625000 0.500000
vt 0.625000 1.000000
vt 0.875000 0.750000
s 0
usemtl マテリアル.024
f 114/185/75 115/186/75 113/187/75
f 116/188/76 119/189/76 115/186/76
f 118/190/77 113/191/77 117/192/77
f 119/189/78 113/193/78 115/194/78
f 116/195/79 118/190/79 120/196/79
f 114/185/75 116/188/75 115/186/75
f 116/188/76 120/196/76 119/189/76
f 118/190/77 114/197/77 113/191/77
f 119/189/78 117/192/78 113/193/78
f 116/195/79 114/198/79 118/190/79
o 立方体.018
v -69.500000 0.000000 300.000000
v -69.500000 30.000000 300.000000
v -69.500000 0.000000 290.000000
v -69.500000 30.000000 290.000000
v 20.500000 0.000000 300.000000
v 20.500000 30.000000 300.000000
v 20.500000 0.000000 290.000000
v 20.500000 30.000000 290.000000
vn -1.0000 -0.0000 -0.0000
vn -0.0000 -0.0000 -1.0000
vn -0.0000 -0.0000 1.0000
vn -0.0000 -1.0000 -0.0000
vn -0.0000 1.0000 -0.0000
vt 0.625000 0.000000
vt 0.375000 0.250000
vt 0.375000 0.000000
vt 0.625000 0.250000
vt 0.375000 0.500000
vt 0.625000 0.750000
vt 0.375000 1.000000
vt 0.375000 0.750000
vt 0.125000 0.750000
vt 0.125000 0.500000
vt 0.875000 0.500000
vt 0.625000 0.500000
vt 0.625000 1.000000
vt 0.875000 0.750000
s 0
usemtl マテリアル.025
f 122/199/80 123/200/80 121/201/80
f 124/202/81 127/203/81 123/200/81
f 126/204/82 121/205/82 125/206/82
f 127/203/83 121/207/83 123/208/83
f 124/209/84 126/204/84 128/210/84
f 122/199/80 124/202/80 123/200/80
f 124/202/81 128/210/81 127/203/81
f 126/204/82 122/211/82 121/205/82
f 127/203/83 125/206/83 121/207/83
f 124/209/84 122/212/84 126/204/84
o 立方体.019
v 20.000000 0.000000 330.000000
v 20.000000 30.000000 330.000000
v 20.000000 0.000000 290.000000
v 20.000000 30.000000 290.000000
v 60.000000 0.000000 330.000000
v 60.000000 30.000000 330.000000
v 60.000000 0.000000 290.000000
v 60.000000 30.000000 290.000000
vn -1.0000 -0.0000 -0.0000
vn -0.0000 -0.0000 -1.0000
vn 1.0000 -0.0000 -0.0000
vn -0.0000 -0.0000 1.0000
vn -0.0000 -1.0000 -0.0000
vn -0.0000 1.0000 -0.0000
vt 0.625000 0.000000
vt 0.375000 0.250000
vt 0.375000 0.000000
vt 0.625000 0.250000
vt 0.375000 0.500000
vt 0.625000 0.500000
vt 0.375000 0.750000
vt 0.625000 0.750000
vt 0.375000 1.000000
vt 0.125000 0.750000
vt 0.125000 0.500000
vt 0.875000 0.500000
vt 0.625000 1.000000
vt 0.875000 0.750000
s 0
usemtl マテリアル.026
f 130/213/85 131/214/85 129/215/85
f 132/216/86 135/217/86 131/214/86
f 136/218/87 133/219/87 135/217/87
f 134/220/88 129/221/88 133/219/88
f 135/217/89 129/222/89 131/223/89
f 132/224/90 134/220/90 136/218/90
f 130/213/85 132/216/85 131/214/85
f 132/216/86 136/218/86 135/217/86
f 136/218/87 134/220/87 133/219/87
f 134/220/88 130/225/88 129/221/88
f 135/217/89 133/219/89 129/222/89
f 132/224/90 130/226/90 134/220/90
