# Blender v2.79 (sub 0) OBJ File: '試作マップ.blend'
# www.blender.org
mtllib map.mtl
o Cube
v -8.000000 0.000000 8.000000
v 8.000000 0.000000 8.000000
v -8.000000 0.000000 -8.000000
v 8.000000 0.000000 -8.000000
v -1.000000 0.000000 1.000000
v -1.000000 2.000000 1.000000
v -1.000000 0.000000 -1.000000
v -1.000000 2.000000 -1.000000
v 1.000000 0.000000 1.000000
v 1.000000 2.000000 1.000000
v 1.000000 0.000000 -1.000000
v 1.000000 2.000000 -1.000000
v 0.000000 0.000000 0.000000
vn 0.0000 1.0000 0.0000
vn -1.0000 0.0000 0.0000
vn 0.0000 0.0000 -1.0000
vn 1.0000 0.0000 0.0000
vn 0.0000 0.0000 1.0000
vn 0.0000 -1.0000 0.0000
usemtl Material
s off
f 2//1 11//1 9//1
f 6//2 7//2 5//2
f 8//3 11//3 7//3
f 12//4 9//4 11//4
f 10//5 5//5 9//5
f 7//6 13//6 5//6
f 8//1 10//1 12//1
f 13//6 9//6 5//6
f 7//6 9//6 5//6
f 7//1 3//1 5//1
f 5//1 1//1 2//1
f 2//1 4//1 11//1
f 9//1 5//1 2//1
f 6//2 8//2 7//2
f 8//3 12//3 11//3
f 12//4 10//4 9//4
f 10//5 6//5 5//5
f 7//6 11//6 13//6
f 8//1 6//1 10//1
f 13//6 11//6 9//6
f 7//6 11//6 9//6
f 7//1 11//1 4//1
f 3//1 1//1 5//1
usemtl Material.002
f 7//1 4//1 3//1
l 11 5
