# Blender v2.79 (sub 0) OBJ File: 'Map.blend'
# www.blender.org
mtllib map2.mtl
o Plane
v -24.000000 3.000000 0.010000
v -24.000000 6.999999 0.010000
v -20.000000 3.000000 0.010000
v -20.000000 6.999999 0.010000
v -26.999998 0.000000 4.000000
v -26.999998 9.999999 4.000000
v -26.999998 0.000000 -6.000000
v -26.999998 9.999999 -6.000000
v -17.000000 0.000000 4.000000
v -17.000000 9.999999 4.000000
v -17.000000 0.000000 -6.000000
v -17.000000 9.999999 -6.000000
v -20.000000 6.999999 4.000000
v -20.000000 3.000000 3.999999
v -24.000000 3.000000 4.000000
v -24.000000 6.999999 3.999999
v -9.999999 -0.017840 -7.000001
v -9.999999 22.999998 -7.000001
v -9.999999 -0.017840 -26.999998
v -9.999999 22.999998 -26.999998
v 9.999999 -0.017840 -7.000001
v 9.999999 22.999998 -7.000001
v 9.999999 -0.017840 -26.999998
v 9.999999 22.999998 -26.999998
v 14.000000 0.000000 7.000000
v 14.000000 16.000000 7.000000
v 14.000000 0.000000 -9.000000
v 14.000000 16.000000 -9.000000
v 30.000002 0.000000 7.000000
v 30.000002 16.000000 7.000000
v 30.000002 0.000000 -9.000000
v 30.000002 16.000000 -9.000000
v 26.999998 13.010001 -9.000000
v 26.999998 13.009999 7.000000
v 26.999998 0.010001 -9.000000
v 26.999998 0.010001 7.000000
v 17.000000 0.010001 -9.000000
v 17.000000 0.010001 7.000000
v 17.000000 13.010001 -9.000000
v 17.000000 13.009999 7.000000
v -50.000000 0.000000 50.000000
v 50.000000 0.000000 50.000000
v -50.000000 0.000000 -50.000000
v 50.000000 0.000000 -50.000000
v -9.999999 -0.000000 -7.000001
v 9.999999 -0.000000 -7.000001
v -10.000002 0.000000 -14.375001
v -9.999999 -0.000000 -26.999998
v 9.999999 -0.000000 -26.999998
v -17.719296 -0.000000 3.999999
v -17.000002 -0.000000 2.975005
vn 0.0000 0.0000 1.0000
vn -1.0000 0.0000 0.0000
vn 0.0000 1.0000 0.0000
vn 0.0000 -1.0000 0.0000
vn 0.0000 0.0000 -1.0000
vn 1.0000 0.0000 0.0000
vn 0.0006 1.0000 0.0000
vn -1.0000 -0.0002 0.0000
usemtl None
s off
f 3//1 2//1 1//1
f 14//2 4//2 3//2
f 15//3 3//3 1//3
f 13//4 2//4 4//4
f 6//2 7//2 5//2
f 8//5 11//5 7//5
f 12//6 9//6 11//6
f 15//1 5//1 50//1
f 51//4 50//4 5//4
f 8//3 10//3 12//3
f 1//6 16//6 15//6
f 16//1 10//1 6//1
f 47//2 48//2 19//2
f 48//5 23//5 19//5
f 49//6 21//6 23//6
f 46//1 17//1 21//1
f 23//4 17//4 19//4
f 20//3 22//3 24//3
f 26//2 27//2 25//2
f 27//5 39//5 37//5
f 32//6 29//6 31//6
f 29//1 36//1 25//1
f 31//4 25//4 27//4
f 28//3 30//3 32//3
f 36//2 33//2 35//2
f 37//6 40//6 38//6
f 33//5 28//5 32//5
f 40//1 30//1 26//1
f 38//3 35//3 37//3
f 34//4 39//4 33//4
f 29//3 25//3 42//3
f 45//3 9//3 25//3
f 49//6 22//6 46//6
f 43//3 49//3 44//3
f 48//5 24//5 49//5
f 47//2 18//2 20//2
f 46//1 18//1 45//1
f 47//3 43//3 7//3
f 5//3 11//3 7//3
f 11//7 9//7 51//7
f 3//1 4//1 2//1
f 14//2 13//2 4//2
f 15//3 14//3 3//3
f 13//4 16//4 2//4
f 6//2 8//2 7//2
f 8//5 12//5 11//5
f 12//6 10//6 9//6
f 50//1 9//1 14//1
f 9//1 10//1 14//1
f 10//1 13//1 14//1
f 14//1 15//1 50//1
f 5//4 7//4 51//4
f 7//4 11//4 51//4
f 51//4 9//4 50//4
f 8//3 6//3 10//3
f 1//6 2//6 16//6
f 6//1 5//1 15//1
f 16//1 13//1 10//1
f 6//1 15//1 16//1
f 19//8 17//8 47//8
f 17//2 45//2 47//2
f 48//5 49//5 23//5
f 49//6 46//6 21//6
f 46//1 45//1 17//1
f 23//4 21//4 17//4
f 20//3 18//3 22//3
f 26//2 28//2 27//2
f 27//5 28//5 39//5
f 37//5 35//5 27//5
f 35//5 31//5 27//5
f 32//6 30//6 29//6
f 29//1 30//1 34//1
f 36//1 38//1 25//1
f 29//1 34//1 36//1
f 31//4 29//4 25//4
f 28//3 26//3 30//3
f 36//2 34//2 33//2
f 37//6 39//6 40//6
f 32//5 31//5 33//5
f 31//5 35//5 33//5
f 33//5 39//5 28//5
f 26//1 25//1 40//1
f 25//1 38//1 40//1
f 40//1 34//1 30//1
f 38//3 36//3 35//3
f 34//4 40//4 39//4
f 25//3 41//3 42//3
f 42//3 44//3 29//3
f 44//3 31//3 29//3
f 27//3 31//3 49//3
f 46//3 45//3 25//3
f 45//3 11//3 9//3
f 27//3 49//3 46//3
f 41//3 25//3 9//3
f 25//3 27//3 46//3
f 9//3 5//3 41//3
f 49//6 24//6 22//6
f 43//3 47//3 48//3
f 49//3 31//3 44//3
f 43//3 48//3 49//3
f 48//5 20//5 24//5
f 20//2 48//2 47//2
f 47//2 45//2 18//2
f 46//1 22//1 18//1
f 43//3 41//3 5//3
f 7//3 11//3 47//3
f 11//3 45//3 47//3
f 43//3 5//3 7//3
f 5//3 9//3 11//3
