# Blender v2.79 (sub 0) OBJ File: 'Map.blend'
# www.blender.org
mtllib map3.mtl
o Plane
v -7.771602 16.000000 40.999996
v 8.228397 16.000000 40.999996
v -7.771602 16.000000 24.999998
v 8.228397 16.000000 24.999998
v 5.228397 13.000000 24.999998
v 5.228397 13.000000 40.999996
v -4.771602 13.000000 24.999998
v -4.771602 13.000000 40.999996
v 8.228396 -0.105631 24.999998
v 8.228396 -0.105631 40.999996
v 5.228397 -0.105631 24.999998
v 5.228397 -0.105631 40.999996
v -4.771603 0.000000 24.999998
v -7.771603 0.000000 24.999998
v -7.771603 0.000000 40.999996
v -4.771603 0.000000 40.999996
v 8.228396 -0.003411 24.999998
v 8.228396 -0.003411 40.999996
v 5.228397 -0.003411 24.999998
v 5.228397 -0.003411 40.999996
v 17.190685 0.000001 14.455995
v 17.190685 16.000000 14.455995
v 17.190685 0.000001 -1.544008
v 17.190685 16.000000 -1.544008
v 20.190685 0.000000 14.455995
v 20.190685 16.000000 14.455995
v 20.190685 0.000000 -1.544008
v 20.190685 16.000000 -1.544008
v -23.990000 3.000000 0.999999
v -23.990000 7.000000 0.999999
v -23.990000 2.999999 -3.000000
v -23.990000 7.000000 -3.000000
v -19.999998 0.000001 3.999999
v -19.999998 10.000000 3.999999
v -30.000002 0.000000 3.999999
v -30.000002 10.000001 3.999999
v -19.999998 0.000000 -6.000000
v -19.999998 9.999999 -6.000000
v -30.000002 0.000000 -6.000000
v -30.000002 10.000000 -6.000000
v -19.999998 7.000000 -3.000000
v -19.999998 3.000000 -3.000000
v -19.999998 3.000000 0.999999
v -19.999998 7.000000 0.999999
v -12.201910 -0.017843 -22.762377
v -32.201912 -0.017841 -22.762377
v -32.201912 22.999998 -22.762377
v -12.201910 -0.017843 -42.762375
v -32.201912 -0.017841 -42.762375
v -32.201912 22.999998 -42.762375
v 31.630129 0.000000 29.999998
v 31.630129 16.000000 29.999998
v 31.630129 0.000000 13.999998
v 31.630129 16.000000 13.999998
v 34.630127 0.000000 29.999998
v 34.630127 16.000000 29.999998
v 34.630127 0.000000 13.999998
v 34.630127 16.000000 13.999998
v 21.248253 -0.017841 -9.999999
v 21.248253 -0.017841 -30.000002
v 21.248253 13.000000 -30.000002
v 41.248249 -0.017841 -9.999999
v 41.248249 -0.017841 -30.000002
v 41.248249 13.000000 -30.000002
v -50.000000 0.000000 50.000000
v 50.000000 0.000000 50.000000
v -50.000000 0.000000 -50.000000
v 50.000000 0.000000 -50.000000
v 8.228396 -0.000000 40.999996
v 8.228396 -0.000000 24.999998
v 8.204217 -0.000000 24.999998
v 5.228397 -0.000000 24.999998
v 5.228397 -0.000000 40.999996
v 21.248255 0.000000 -30.000002
v 41.248253 0.000000 -30.000002
v 41.248253 0.000000 -10.027411
v 21.248255 0.000000 -10.027411
v -12.217413 0.000000 -22.762377
v -32.201912 0.000000 -22.762377
v -12.217411 -0.000002 -42.746872
v -12.217413 0.000000 -42.762379
v -32.201912 0.000000 -42.762375
vn 0.0000 1.0000 0.0000
vn 1.0000 0.0000 0.0000
vn 0.0000 -1.0000 0.0000
vn 0.0000 0.0000 -1.0000
vn 0.0000 0.0000 1.0000
vn -1.0000 0.0000 0.0000
vn 0.0000 -0.0002 -1.0000
vn 0.7549 0.6559 0.0000
vn -1.0000 0.0003 0.0000
vn 0.0000 0.8381 0.5455
vn 0.7548 0.6560 0.0000
vn -1.0000 -0.0002 0.0000
vn 0.0000 1.0000 0.0001
usemtl None
s off
f 4//1 1//1 2//1
f 69//2 4//2 2//2
f 5//3 8//3 7//3
f 4//4 7//4 3//4
f 6//5 2//5 1//5
f 11//2 20//2 12//2
f 5//6 73//6 6//6
f 13//3 15//3 14//3
f 8//2 13//2 7//2
f 14//6 1//6 3//6
f 17//3 20//3 19//3
f 9//5 19//5 11//5
f 12//4 18//4 10//4
f 10//6 17//6 9//6
f 22//6 23//6 21//6
f 23//4 28//4 27//4
f 28//2 25//2 27//2
f 26//5 21//5 25//5
f 27//3 21//3 23//3
f 24//1 26//1 28//1
f 29//2 32//2 30//2
f 42//5 32//5 31//5
f 43//1 31//1 29//1
f 41//3 30//3 32//3
f 33//5 36//5 35//5
f 36//6 39//6 35//6
f 39//4 38//4 37//4
f 43//2 33//2 37//2
f 39//3 33//3 35//3
f 36//1 38//1 40//1
f 29//4 44//4 43//4
f 41//2 38//2 34//2
f 49//7 81//7 48//7
f 79//6 49//6 46//6
f 49//3 45//3 46//3
f 46//5 78//5 79//5
f 47//8 78//8 80//8
f 52//6 53//6 51//6
f 54//4 57//4 53//4
f 58//2 55//2 57//2
f 56//5 51//5 55//5
f 57//3 51//3 53//3
f 54//1 56//1 58//1
f 63//2 76//2 62//2
f 74//4 63//4 60//4
f 63//3 59//3 60//3
f 60//9 77//9 74//9
f 61//10 76//10 64//10
f 66//1 73//1 16//1
f 72//6 12//6 73//6
f 71//4 9//4 11//4
f 33//1 13//1 23//1
f 67//1 35//1 39//1
f 67//1 81//1 68//1
f 53//1 57//1 27//1
f 77//10 62//10 76//10
f 80//8 45//8 48//8
f 79//6 50//6 82//6
f 76//2 75//2 64//2
f 81//4 82//4 50//4
f 79//5 78//5 47//5
f 74//6 77//6 61//6
f 74//4 64//4 75//4
f 69//2 9//2 70//2
f 73//5 10//5 69//5
f 4//1 3//1 1//1
f 69//2 70//2 4//2
f 5//3 6//3 8//3
f 4//4 70//4 5//4
f 70//4 71//4 5//4
f 71//4 72//4 5//4
f 7//4 13//4 14//4
f 7//4 14//4 3//4
f 4//4 5//4 7//4
f 6//5 73//5 69//5
f 1//5 15//5 8//5
f 15//5 16//5 8//5
f 6//5 69//5 2//5
f 1//5 8//5 6//5
f 11//2 19//2 20//2
f 5//6 72//6 73//6
f 13//3 16//3 15//3
f 8//2 16//2 13//2
f 14//6 15//6 1//6
f 17//3 18//3 20//3
f 9//5 17//5 19//5
f 12//4 20//4 18//4
f 10//6 18//6 17//6
f 22//6 24//6 23//6
f 23//4 24//4 28//4
f 28//2 26//2 25//2
f 26//5 22//5 21//5
f 27//3 25//3 21//3
f 24//1 22//1 26//1
f 29//2 31//2 32//2
f 42//5 41//5 32//5
f 43//1 42//1 31//1
f 41//3 44//3 30//3
f 33//5 34//5 36//5
f 36//6 40//6 39//6
f 39//4 40//4 38//4
f 37//2 38//2 42//2
f 38//2 41//2 42//2
f 42//2 43//2 37//2
f 39//3 37//3 33//3
f 36//1 34//1 38//1
f 29//4 30//4 44//4
f 34//2 33//2 44//2
f 33//2 43//2 44//2
f 44//2 41//2 34//2
f 49//4 82//4 81//4
f 79//6 82//6 49//6
f 49//3 48//3 45//3
f 46//5 45//5 78//5
f 81//11 50//11 80//11
f 50//8 47//8 80//8
f 52//6 54//6 53//6
f 54//4 58//4 57//4
f 58//2 56//2 55//2
f 56//5 52//5 51//5
f 57//3 55//3 51//3
f 54//1 52//1 56//1
f 63//2 75//2 76//2
f 74//4 75//4 63//4
f 63//3 62//3 59//3
f 60//12 59//12 77//12
f 61//10 77//10 76//10
f 66//1 57//1 55//1
f 51//1 70//1 69//1
f 66//1 55//1 51//1
f 15//1 35//1 65//1
f 72//1 13//1 16//1
f 16//1 15//1 65//1
f 66//1 51//1 69//1
f 73//1 72//1 16//1
f 66//1 69//1 73//1
f 16//1 65//1 66//1
f 72//6 11//6 12//6
f 11//4 72//4 71//4
f 71//4 70//4 9//4
f 33//1 35//1 14//1
f 35//1 15//1 14//1
f 14//1 13//1 33//1
f 13//1 72//1 21//1
f 33//1 23//1 37//1
f 74//1 75//1 68//1
f 27//1 77//1 23//1
f 77//1 74//1 37//1
f 23//1 77//1 37//1
f 71//1 21//1 72//1
f 21//1 23//1 13//1
f 74//1 68//1 37//1
f 39//1 37//1 79//1
f 37//1 68//1 78//1
f 68//1 80//1 78//1
f 79//1 67//1 39//1
f 67//1 65//1 35//1
f 37//1 78//1 79//1
f 67//1 79//1 82//1
f 81//13 80//13 68//13
f 67//1 82//1 81//1
f 66//1 68//1 76//1
f 68//1 75//1 76//1
f 76//1 77//1 27//1
f 57//1 66//1 76//1
f 76//1 27//1 57//1
f 27//1 25//1 53//1
f 25//1 21//1 70//1
f 21//1 71//1 70//1
f 70//1 51//1 25//1
f 51//1 53//1 25//1
f 77//10 59//10 62//10
f 48//11 81//11 80//11
f 80//8 78//8 45//8
f 79//6 47//6 50//6
f 74//4 61//4 64//4
f 69//2 10//2 9//2
f 73//5 12//5 10//5
