# Blender v2.79 (sub 0) OBJ File: 'NewMap BU.blend'
# www.blender.org
mtllib slope.mtl
o Cylinder.003_Cylinder.004
v 8.660250 10.000000 -10.000000
v 8.660250 10.000000 10.000000
v 8.660254 -5.000000 -10.000000
v 8.660254 -5.000001 10.000000
v -8.660254 -4.999999 -10.000000
v -8.660254 -5.000000 10.000000
v 8.660250 10.000000 0.000000
v 8.660254 -5.000000 -0.000000
v -8.660254 -4.999999 -0.000000
vn 1.0000 0.0000 0.0000
vn -0.0000 -1.0000 0.0000
vn 0.0000 0.0000 1.0000
vn -0.6547 0.7559 0.0000
vn -0.0000 0.0000 -1.0000
usemtl Material.008
s off
f 2//1 8//1 7//1
f 4//2 9//2 8//2
f 4//3 2//3 6//3
f 6//4 7//4 9//4
f 1//5 3//5 5//5
f 9//4 1//4 5//4
f 8//2 5//2 3//2
f 7//1 3//1 1//1
f 2//1 4//1 8//1
f 4//2 6//2 9//2
f 6//4 2//4 7//4
f 9//4 7//4 1//4
f 8//2 9//2 5//2
f 7//1 8//1 3//1
