# Blender v2.79 (sub 0) OBJ File: 'Map.blend'
# www.blender.org
mtllib slopeobj.mtl
o Cube_Cube.001
v -12.201910 -0.017840 -22.762375
v -32.201912 -0.017840 -22.762375
v -32.201912 23.000000 -22.762375
v -12.201910 -0.017840 -42.762375
v -32.201912 -0.017840 -42.762375
v -32.201912 23.000000 -42.762375
vn 0.0000 0.0000 -1.0000
vn -1.0000 0.0000 0.0000
vn 0.0000 -1.0000 0.0000
vn 0.0000 0.0000 1.0000
vn 0.7549 0.6559 0.0000
usemtl Material.002
s off
f 5//1 6//1 4//1
f 3//2 5//2 2//2
f 5//3 1//3 2//3
f 2//4 1//4 3//4
f 3//5 4//5 6//5
f 3//2 6//2 5//2
f 5//3 4//3 1//3
f 3//5 1//5 4//5
o Cube.002_Cube.006
v 21.000000 -0.017840 -10.000000
v 21.000000 -0.017840 -30.000000
v 21.000000 13.000000 -30.000000
v 41.000000 -0.017840 -10.000000
v 41.000000 -0.017840 -30.000000
v 41.000000 13.000000 -30.000000
vn 1.0000 0.0000 0.0000
vn 0.0000 0.0000 -1.0000
vn 0.0000 -1.0000 0.0000
vn -1.0000 0.0000 0.0000
vn 0.0000 0.8381 0.5455
usemtl Material.001
s off
f 11//6 12//6 10//6
f 9//7 11//7 8//7
f 11//8 7//8 8//8
f 8//9 7//9 9//9
f 9//10 10//10 12//10
f 9//7 12//7 11//7
f 11//8 10//8 7//8
f 9//10 7//10 10//10
