# Blender v2.79 (sub 0) OBJ File: 'SlopeMap.blend'
# www.blender.org
mtllib SlopeMap2.mtl
o Plane
v 3.500000 6.750000 -15.897113
v -5.500000 6.750000 -15.897113
v 3.500000 -0.000000 -8.102885
v -5.500000 -0.000001 -8.102885
v 3.500001 0.000001 -15.897113
v -5.500000 0.000000 -15.897113
v 14.897114 6.750000 4.499999
v 14.897116 6.750000 -4.500000
v 7.102887 -0.000000 4.500000
v 7.102887 -0.000000 -4.500000
v 14.897116 0.000001 4.500000
v 14.897116 0.000000 -4.500000
v -5.500000 6.750000 15.897113
v 3.500001 6.750000 15.897113
v -5.500000 0.000000 8.102886
v 3.500000 -0.000000 8.102886
v -5.500000 0.000001 15.897113
v 3.500000 0.000000 15.897113
v -15.397114 6.750000 -4.500000
v -15.397113 6.749999 4.500002
v -7.602886 -0.000000 -4.500000
v -7.602886 -0.000001 4.500000
v -15.397113 0.000000 -4.500000
v -15.397114 0.000000 4.500000
v -34.000000 0.000000 30.000000
v 26.000000 0.000000 30.000000
v -34.000000 0.000000 -30.000000
v 26.000000 0.000000 -30.000000
v -8.499999 0.000000 -4.499999
v -7.602886 0.000000 -3.602886
vn 0.0000 0.7559 0.6547
vn -1.0000 0.0000 -0.0000
vn 0.0000 0.0000 -1.0000
vn 1.0000 0.0000 0.0000
vn -0.6547 0.7559 -0.0000
vn 0.0000 0.0000 1.0000
vn 0.0000 0.7559 -0.6547
vn 0.6547 0.7559 0.0000
vn 0.0000 1.0000 0.0000
vn -0.2830 0.9591 0.0000
usemtl None
s off
f 2//1 3//1 1//1
f 4//2 2//2 6//2
f 6//3 1//3 5//3
f 1//4 3//4 5//4
f 8//5 9//5 7//5
f 10//3 8//3 12//3
f 11//4 12//4 8//4 7//4
f 7//6 9//6 11//6
f 14//7 15//7 13//7
f 16//4 14//4 18//4
f 17//6 18//6 14//6 13//6
f 13//2 15//2 17//2
f 20//8 21//8 19//8
f 22//6 20//6 24//6
f 23//2 24//2 20//2 19//2
f 19//3 29//3 23//3
f 25//9 26//9 17//9
f 26//9 28//9 11//9
f 10//9 3//9 21//9
f 27//9 6//9 28//9
f 21//10 22//10 30//10
f 2//1 4//1 3//1
f 6//3 2//3 1//3
f 8//5 10//5 9//5
f 14//7 16//7 15//7
f 20//8 22//8 21//8
f 19//3 21//3 29//3
f 26//9 16//9 18//9
f 17//9 15//9 24//9
f 26//9 18//9 17//9
f 17//9 24//9 25//9
f 22//9 24//9 15//9
f 22//9 15//9 16//9
f 11//9 9//9 16//9
f 9//9 22//9 16//9
f 28//9 12//9 11//9
f 11//9 16//9 26//9
f 21//9 22//9 9//9
f 10//9 12//9 5//9
f 12//9 28//9 5//9
f 21//9 9//9 10//9
f 25//9 24//9 27//9
f 24//9 23//9 27//9
f 4//9 27//9 23//9
f 4//9 23//9 21//9
f 5//9 3//9 10//9
f 3//9 4//9 21//9
f 27//9 4//9 6//9
f 6//9 5//9 28//9
