# Blender v2.79 (sub 0) OBJ File: ''
# www.blender.org
mtllib Slope2.mtl
o Cylinder
v -3.000000 4.500000 -3.000000
v 3.000000 4.500000 -3.000000
v -3.000000 -0.000000 -3.000000
v 3.000000 -0.000000 -3.000000
v -3.000000 0.000000 2.598077
v 3.000000 0.000000 2.598076
vn -0.0000 0.0000 -1.0000
vn -0.0000 -1.0000 0.0000
vn 1.0000 0.0000 -0.0000
vn 0.0000 0.7794 0.6265
vn -1.0000 0.0000 0.0000
usemtl Material.001
s off
f 2//1 3//1 1//1
f 4//2 5//2 3//2
f 4//3 2//3 6//3
f 6//4 1//4 5//4
f 1//5 3//5 5//5
f 2//1 4//1 3//1
f 4//2 6//2 5//2
f 6//4 2//4 1//4
