# Blender 4.2.3 LTS
# www.blender.org
mtllib DemonWallOut.mtl
o DemonWall.001
v -329.000000 0.000000 406.174927
v -329.000000 33.000046 406.174927
v -329.000000 0.000000 244.790771
v -329.000000 33.000046 244.790771
vn 1.0000 -0.0000 -0.0000
vt 1.000000 0.000000
vt 0.000000 1.000000
vt 0.000000 0.000000
vt 1.000000 1.000000
s 0
usemtl マテリアル.002
f 4/1/1 1/2/1 3/3/1
f 4/1/1 2/4/1 1/2/1
o DemonWall.002
v -166.926071 -0.000072 -312.000000
v -166.926071 32.999973 -312.000000
v 106.148926 -0.000072 -312.000000
v 106.148926 32.999973 -312.000000
vn -0.0000 -0.0000 1.0000
vt 1.000000 0.000000
vt 0.000000 1.000000
vt 0.000000 0.000000
vt 1.000000 1.000000
s 0
usemtl マテリアル.006
f 8/5/2 5/6/2 7/7/2
f 8/5/2 6/8/2 5/6/2
