# Blender 4.2.3 LTS
# www.blender.org
mtllib test_wall_col.mtl
o 立方体
v 76.175003 33.000004 -13.976509
v 76.175003 0.000004 -13.976509
v 76.175003 33.000004 9.976509
v 76.175003 0.000004 9.976509
v 56.100018 33.000004 -13.976509
v 56.100018 0.000004 -13.976509
v 56.100018 33.000004 9.976509
v 56.100018 0.000004 9.976509
vn 1.0000 -0.0000 -0.0000
vn -0.0000 -0.0000 1.0000
vn -1.0000 -0.0000 -0.0000
vn -0.0000 -0.0000 -1.0000
vn -0.0000 1.0000 -0.0000
vn -0.0000 -1.0000 -0.0000
vt 0.625000 0.000000
vt 0.375000 0.250000
vt 0.375000 0.000000
vt 0.625000 0.250000
vt 0.375000 0.500000
vt 0.625000 0.500000
vt 0.375000 0.750000
vt 0.625000 0.750000
vt 0.375000 1.000000
vt 0.125000 0.750000
vt 0.125000 0.500000
vt 0.875000 0.500000
vt 0.625000 1.000000
vt 0.875000 0.750000
s 0
usemtl マテリアル.011
f 2/1/1 1/3/1 3/2/1
f 4/4/2 3/2/2 7/5/2
f 8/6/3 7/5/3 5/7/3
f 6/8/4 5/7/4 1/9/4
f 7/5/5 3/11/5 1/10/5
f 4/12/6 8/6/6 6/8/6
f 2/1/1 3/2/1 4/4/1
f 4/4/2 7/5/2 8/6/2
f 8/6/3 5/7/3 6/8/3
f 6/8/4 1/9/4 2/13/4
f 7/5/5 1/10/5 5/7/5
f 4/12/6 6/8/6 2/14/6
o 立方体.001
v -173.249969 33.000034 219.174988
v -173.249969 0.000034 219.174988
v -173.249969 33.000034 243.128021
v -173.249969 0.000034 243.128021
v -239.402374 33.000034 219.174988
v -239.402374 0.000034 219.174988
v -239.402374 33.000034 243.128021
v -239.402374 0.000034 243.128021
vn 1.0000 -0.0000 -0.0000
vn -0.0000 -0.0000 1.0000
vn -1.0000 -0.0000 -0.0000
vn -0.0000 -0.0000 -1.0000
vn -0.0000 1.0000 -0.0000
vn -0.0000 -1.0000 -0.0000
vt 0.625000 0.000000
vt 0.375000 0.250000
vt 0.375000 0.000000
vt 0.625000 0.250000
vt 0.375000 0.500000
vt 0.625000 0.500000
vt 0.375000 0.750000
vt 0.625000 0.750000
vt 0.375000 1.000000
vt 0.125000 0.750000
vt 0.125000 0.500000
vt 0.875000 0.500000
vt 0.625000 1.000000
vt 0.875000 0.750000
s 0
usemtl マテリアル.011
f 10/15/7 9/17/7 11/16/7
f 12/18/8 11/16/8 15/19/8
f 16/20/9 15/19/9 13/21/9
f 14/22/10 13/21/10 9/23/10
f 15/19/11 11/25/11 9/24/11
f 12/26/12 16/20/12 14/22/12
f 10/15/7 11/16/7 12/18/7
f 12/18/8 15/19/8 16/20/8
f 16/20/9 13/21/9 14/22/9
f 14/22/10 9/23/10 10/27/10
f 15/19/11 9/24/11 13/21/11
f 12/26/12 14/22/12 10/28/12
o 立方体.002
v -239.402374 33.000008 45.374992
v -239.402374 0.000008 45.374992
v -239.402374 33.000008 65.174957
v -239.402374 0.000008 65.174957
v -260.823730 33.000008 45.374992
v -260.823730 0.000008 45.374992
v -260.823730 33.000008 65.174957
v -260.823730 0.000008 65.174957
vn 1.0000 -0.0000 -0.0000
vn -0.0000 -0.0000 1.0000
vn -1.0000 -0.0000 -0.0000
vn -0.0000 -0.0000 -1.0000
vn -0.0000 1.0000 -0.0000
vn -0.0000 -1.0000 -0.0000
vt 0.625000 0.000000
vt 0.375000 0.250000
vt 0.375000 0.000000
vt 0.625000 0.250000
vt 0.375000 0.500000
vt 0.625000 0.500000
vt 0.375000 0.750000
vt 0.625000 0.750000
vt 0.375000 1.000000
vt 0.125000 0.750000
vt 0.125000 0.500000
vt 0.875000 0.500000
vt 0.625000 1.000000
vt 0.875000 0.750000
s 0
usemtl マテリアル.011
f 18/29/13 17/31/13 19/30/13
f 20/32/14 19/30/14 23/33/14
f 24/34/15 23/33/15 21/35/15
f 22/36/16 21/35/16 17/37/16
f 23/33/17 19/39/17 17/38/17
f 20/40/18 24/34/18 22/36/18
f 18/29/13 19/30/13 20/32/13
f 20/32/14 23/33/14 24/34/14
f 24/34/15 21/35/15 22/36/15
f 22/36/16 17/37/16 18/41/16
f 23/33/17 17/38/17 21/35/17
f 20/40/18 22/36/18 18/42/18
o 立方体.003
v -99.000015 33.000061 380.325012
v -99.000015 0.000061 380.325012
v -99.000015 33.000061 406.174957
v -99.000015 0.000061 406.174957
v -130.899994 33.000061 380.325012
v -130.899994 0.000061 380.325012
v -130.899994 33.000061 406.174957
v -130.899994 0.000061 406.174957
vn 1.0000 -0.0000 -0.0000
vn -0.0000 -0.0000 1.0000
vn -1.0000 -0.0000 -0.0000
vn -0.0000 -0.0000 -1.0000
vn -0.0000 1.0000 -0.0000
vn -0.0000 -1.0000 -0.0000
vt 0.625000 0.000000
vt 0.375000 0.250000
vt 0.375000 0.000000
vt 0.625000 0.250000
vt 0.375000 0.500000
vt 0.625000 0.500000
vt 0.375000 0.750000
vt 0.625000 0.750000
vt 0.375000 1.000000
vt 0.125000 0.750000
vt 0.125000 0.500000
vt 0.875000 0.500000
vt 0.625000 1.000000
vt 0.875000 0.750000
s 0
usemtl マテリアル.011
f 26/43/19 25/45/19 27/44/19
f 28/46/20 27/44/20 31/47/20
f 32/48/21 31/47/21 29/49/21
f 30/50/22 29/49/22 25/51/22
f 31/47/23 27/53/23 25/52/23
f 28/54/24 32/48/24 30/50/24
f 26/43/19 27/44/19 28/46/19
f 28/46/20 31/47/20 32/48/20
f 32/48/21 29/49/21 30/50/21
f 30/50/22 25/51/22 26/55/22
f 31/47/23 25/52/23 29/49/23
f 28/54/24 30/50/24 26/56/24
o 立方体.004
v 198.000046 32.999985 -53.350006
v 198.000046 -0.000015 -53.350006
v 198.000046 32.999985 -29.396988
v 198.000046 -0.000015 -29.396988
v 177.925064 32.999985 -53.350006
v 177.925064 -0.000015 -53.350006
v 177.925064 32.999985 -29.396988
v 177.925064 -0.000015 -29.396988
vn 1.0000 -0.0000 -0.0000
vn -0.0000 -0.0000 1.0000
vn -1.0000 -0.0000 -0.0000
vn -0.0000 -0.0000 -1.0000
vn -0.0000 1.0000 -0.0000
vn -0.0000 -1.0000 -0.0000
vt 0.625000 0.000000
vt 0.375000 0.250000
vt 0.375000 0.000000
vt 0.625000 0.250000
vt 0.375000 0.500000
vt 0.625000 0.500000
vt 0.375000 0.750000
vt 0.625000 0.750000
vt 0.375000 1.000000
vt 0.125000 0.750000
vt 0.125000 0.500000
vt 0.875000 0.500000
vt 0.625000 1.000000
vt 0.875000 0.750000
s 0
usemtl マテリアル.011
f 34/57/25 33/59/25 35/58/25
f 36/60/26 35/58/26 39/61/26
f 40/62/27 39/61/27 37/63/27
f 38/64/28 37/63/28 33/65/28
f 39/61/29 35/67/29 33/66/29
f 36/68/30 40/62/30 38/64/30
f 34/57/25 35/58/25 36/60/25
f 36/60/26 39/61/26 40/62/26
f 40/62/27 37/63/27 38/64/27
f 38/64/28 33/65/28 34/69/28
f 39/61/29 33/66/29 37/63/29
f 36/68/30 38/64/30 34/70/30
