# Blender 4.2.3 LTS
# www.blender.org
mtllib test_wall_col.mtl
o collider.002
v -57.801342 -0.000043 49.072674
v -57.801342 32.999954 49.072670
v 60.448654 -0.000043 49.072674
v 60.448654 32.999954 49.072670
v 27.510916 21.999958 49.072674
v 43.388279 21.999958 49.072674
v -41.290966 21.999958 49.072674
v -25.413610 21.999958 49.072674
v -41.851345 -0.000043 49.072674
v -41.851345 21.999958 49.072674
v -22.051344 -0.000043 49.072674
v -22.051344 21.999958 49.072674
v -33.326344 21.999958 49.072674
v 43.948658 -0.000043 49.072674
v 43.948658 21.999958 49.072674
v 24.148653 -0.000043 49.072674
v 24.148653 21.999958 49.072674
v -50.651348 -0.000066 -40.302261
v -50.651348 32.999931 -40.302265
v 53.298649 -0.000066 -40.302261
v 53.298649 32.999931 -40.302265
v 60.448650 -0.000043 49.072735
v 60.448650 32.999954 49.072731
v 60.448650 -0.000066 -47.452293
v 60.448650 32.999931 -47.452297
v -50.651348 -0.000044 41.922710
v -50.651348 32.999954 41.922707
v -50.651348 -0.000064 -40.302261
v -50.651348 32.999931 -40.302265
v -50.651348 -0.000042 41.922710
v -50.651348 32.999958 41.922707
v 53.298653 -0.000042 41.922710
v 53.298653 32.999958 41.922707
v 27.510912 21.999956 41.922710
v 43.388271 21.999956 41.922710
v -41.290966 21.999956 41.922710
v -25.413610 21.999956 41.922710
v -41.851345 -0.000042 41.922710
v -41.851345 21.999956 41.922710
v -22.051344 -0.000042 41.922710
v -22.051344 21.999956 41.922710
v 43.948654 -0.000042 41.922710
v 43.948654 21.999956 41.922710
v 24.148653 -0.000042 41.922710
v 34.323658 21.999956 41.922710
v 24.148653 21.999956 41.922710
v -57.801342 -0.000066 -47.452354
v -57.801342 32.999931 -47.452358
v 60.448654 -0.000066 -47.452354
v 60.448654 32.999931 -47.452358
v 53.298649 -0.000044 41.922649
v 53.298649 32.999954 41.922646
v 53.298649 -0.000064 -40.027115
v 53.298649 32.999931 -40.027119
v -57.801342 -0.000043 49.072674
v -57.801342 32.999954 49.072670
v -57.801342 -0.000066 -47.727562
v -57.801342 32.999931 -47.727566
vn -0.0000 -0.0000 1.0000
vn -0.0000 -0.0000 -1.0000
vn 1.0000 -0.0000 -0.0000
vn -1.0000 -0.0000 -0.0000
vt 0.541667 0.926471
vt 0.541667 0.823530
vt 0.625000 1.000000
vt 0.375000 0.926471
vt 0.375000 0.823529
vt 0.541667 0.779412
vt 0.375000 0.779412
vt 0.375000 0.750000
vt 0.375000 1.000000
vt 0.541667 0.970588
vt 0.375000 0.970588
vt 0.625000 0.750000
vt 0.541667 0.780660
vt 0.541667 0.969339
vt 0.541667 0.951593
vt 0.541667 0.816038
vt 0.541667 0.933962
vt 0.625000 0.250000
vt 0.541667 0.426471
vt 0.541667 0.323529
vt 0.625000 0.500000
vt 0.375000 0.500000
vt 0.541667 0.470588
vt 0.375000 0.470588
vt 0.375000 0.279412
vt 0.375000 0.250000
vt 0.541667 0.279412
vt 0.541667 0.469340
vt 0.541667 0.449142
vt 0.541667 0.280660
vt 0.541667 0.316038
vt 0.541667 0.433962
vt 0.375000 0.426471
vt 0.375000 0.323529
vt 0.375000 0.000000
vt 0.625000 0.000000
s 0
usemtl マテリアル.137
f 12/1/1 17/2/1 2/3/1
f 12/1/1 11/4/1 16/5/1
f 12/1/1 16/5/1 17/2/1
f 15/6/1 14/7/1 3/8/1
f 2/3/1 1/9/1 10/10/1
f 1/9/1 9/11/1 10/10/1
f 15/6/1 3/8/1 4/12/1
f 6/13/1 15/6/1 4/12/1
f 4/12/1 2/3/1 17/2/1
f 2/3/1 10/10/1 7/14/1
f 2/3/1 7/14/1 13/15/1
f 5/16/1 6/13/1 4/12/1
f 17/2/1 5/16/1 4/12/1
f 2/3/1 13/15/1 8/17/1
f 2/3/1 8/17/1 12/1/1
f 31/18/2 46/19/2 41/20/2
f 33/21/2 32/22/2 43/23/2
f 32/22/2 42/24/2 43/23/2
f 38/25/2 30/26/2 39/27/2
f 30/26/2 31/18/2 39/27/2
f 31/18/2 33/21/2 46/19/2
f 33/21/2 43/23/2 35/28/2
f 33/21/2 35/28/2 45/29/2
f 36/30/2 39/27/2 31/18/2
f 37/31/2 36/30/2 31/18/2
f 33/21/2 45/29/2 34/32/2
f 33/21/2 34/32/2 46/19/2
f 41/20/2 37/31/2 31/18/2
f 44/33/2 40/34/2 41/20/2
f 46/19/2 44/33/2 41/20/2
f 9/11/3 39/27/3 10/10/3
f 16/5/3 46/19/3 17/2/3
f 41/20/4 11/4/4 12/1/4
f 43/23/4 14/7/4 15/6/4
f 9/11/3 38/25/3 39/27/3
f 16/5/3 44/33/3 46/19/3
f 41/20/4 40/34/4 11/4/4
f 43/23/4 42/24/4 14/7/4
usemtl マテリアル.138
f 20/8/1 19/3/1 18/9/1
f 20/8/1 21/12/1 19/3/1
f 24/22/3 23/12/3 22/8/3
f 24/22/3 25/21/3 23/12/3
f 47/26/2 50/21/2 49/22/2
f 47/26/2 48/18/2 50/21/2
f 51/35/4 54/18/4 53/26/4
f 51/35/4 52/36/4 54/18/4
usemtl マテリアル.099
f 28/22/3 27/12/3 26/8/3
f 28/22/3 29/21/3 27/12/3
f 55/35/4 58/18/4 57/26/4
f 55/35/4 56/36/4 58/18/4
