# Blender 4.2.3 LTS
# www.blender.org
mtllib source_of_demon_power.mtl
o 立方体
v -1.335473 2.415121 0.935108
v 0.140150 3.573576 1.628302
v -1.482170 3.573576 -0.688610
v -0.006547 4.732032 0.004584
v 0.006547 1.267968 -0.004584
v 1.482170 2.426424 0.688610
v -0.140150 2.426424 -1.628302
v 1.335473 3.584879 -0.935108
vn -0.6710 0.5736 0.4698
vn -0.0733 0.5792 -0.8119
vn 0.6710 -0.5736 -0.4698
vn 0.0733 -0.5792 0.8119
vn -0.7378 -0.5792 -0.3466
vn 0.7378 0.5792 0.3466
vt 0.666927 0.500000
vt 0.998291 0.500000
vt 0.998291 1.000000
vt 0.666927 1.000000
vt 0.335563 1.000000
vt 0.335563 0.500000
vt 0.998291 0.000000
vt 0.666927 0.000000
vt 0.000000 1.000000
vt 0.000000 0.500000
vt 0.335563 0.000000
vt -0.000000 0.000000
s 0
usemtl マテリアル
f 1/1/1 2/2/1 4/3/1 3/4/1
f 3/5/2 4/6/2 8/1/2 7/4/2
f 7/7/3 8/2/3 6/1/3 5/8/3
f 5/6/4 6/5/4 2/9/4 1/10/4
f 3/11/5 7/6/5 5/10/5 1/12/5
f 8/1/6 4/6/6 2/11/6 6/8/6
