# Blender 4.2.3 LTS
# www.blender.org
mtllib crate.mtl
o HJD_FP_Asset
v 3.800000 0.200000 4.000000
v 4.000000 0.200000 3.800000
v 3.800000 0.000000 3.800000
v -4.000000 0.200000 3.800000
v -3.800000 0.200000 4.000000
v -3.800000 0.000000 3.800000
v -3.800000 7.800001 4.000000
v -4.000000 7.800001 3.799999
v -3.800000 8.000000 3.799999
v 3.800000 7.800001 4.000000
v 3.800000 8.000000 3.799999
v 4.000000 7.800001 3.799999
v -3.800000 -0.000000 -3.800000
v -3.800000 0.200000 -4.000000
v -4.000000 0.200000 -3.800000
v 3.800000 -0.000000 -3.800000
v 4.000000 0.200000 -3.800000
v 3.800000 0.200000 -4.000000
v 3.800000 8.000000 -3.800001
v 3.800000 7.800000 -4.000000
v 4.000000 7.800000 -3.800000
v -4.000000 7.800000 -3.800000
v -3.800000 7.800000 -4.000000
v -3.800000 8.000000 -3.800001
v -2.800000 6.234316 3.500000
v 2.234315 1.200000 3.500000
v -2.800000 1.200000 3.500000
v 2.800000 6.234315 -3.500000
v -2.234315 1.200000 -3.500000
v 2.800000 1.200000 -3.500000
v 2.800000 7.500000 2.234314
v -2.234315 7.500000 -2.800000
v 2.800000 7.500000 -2.800000
v -2.800000 0.500000 2.234315
v 2.234315 0.500000 -2.800000
v -2.800000 0.500000 -2.800000
v 3.500000 6.234315 2.799999
v 3.500000 1.200000 -2.234315
v 3.500000 1.200000 2.800000
v -3.500000 6.234315 -2.800000
v -3.500000 1.200000 2.234315
v -3.500000 1.200000 -2.800000
v -3.500000 1.765686 2.800000
v -3.500000 6.800000 -2.234315
v -3.500000 6.800000 2.799999
v 3.500000 1.765685 -2.800000
v 3.500000 6.800000 2.234314
v 3.500000 6.800000 -2.800000
v 2.800000 0.500000 -2.234315
v -2.234315 0.500000 2.800000
v 2.800000 0.500000 2.800000
v -2.800000 7.500000 -2.234315
v 2.234315 7.500000 2.799999
v -2.800000 7.500000 2.799999
v -2.800000 1.765685 -3.500000
v 2.234315 6.800000 -3.500000
v -2.800000 6.800000 -3.500000
v 2.800000 1.765686 3.500000
v -2.234315 6.800001 3.500000
v 2.800000 6.800001 3.500000
v -2.800000 1.200001 4.000000
v 2.234315 1.200001 4.000000
v -2.800000 6.234316 4.000000
v -2.234315 6.800001 4.000000
v 2.800000 1.765686 4.000000
v 2.800000 6.800001 4.000000
v 2.800000 1.200000 -4.000000
v -2.234315 1.200000 -4.000000
v 2.800000 6.234315 -4.000000
v 2.234315 6.800000 -4.000000
v -2.800000 1.765685 -4.000000
v -2.800000 6.800000 -4.000000
v 2.800000 8.000000 -2.800001
v -2.234315 8.000000 -2.800001
v -2.800000 8.000000 -2.234315
v -2.800000 8.000000 2.799999
v 2.234315 8.000000 2.799999
v 2.800000 8.000000 2.234314
v -2.800000 -0.000000 -2.800000
v 2.234315 -0.000000 -2.800000
v 2.800000 -0.000000 -2.234315
v 2.800000 0.000000 2.800000
v -2.234315 0.000000 2.800000
v -2.800000 0.000000 2.234315
v 4.000000 1.200000 2.800000
v 4.000000 1.200000 -2.234315
v 4.000000 6.234315 2.799999
v 4.000000 6.800000 2.234314
v 4.000000 1.765685 -2.800000
v 4.000000 6.800000 -2.800000
v -4.000000 1.200000 -2.800000
v -4.000000 1.200000 2.234315
v -4.000000 6.234315 -2.800000
v -4.000000 6.800000 -2.234315
v -4.000000 1.765686 2.800000
v -4.000000 6.800000 2.799999
vn 0.5774 -0.5774 0.5774
vn -0.5774 -0.5774 0.5774
vn -0.5774 0.5774 0.5774
vn 0.5774 0.5774 0.5774
vn -0.5774 -0.5774 -0.5774
vn 0.5774 -0.5774 -0.5774
vn 0.5774 0.5774 -0.5774
vn -0.5774 0.5774 -0.5774
vn -0.0000 -0.0000 1.0000
vn -0.0000 -0.0000 -1.0000
vn -0.0000 1.0000 -0.0000
vn -0.0000 -1.0000 -0.0000
vn 1.0000 -0.0000 -0.0000
vn -1.0000 -0.0000 -0.0000
vn -0.7071 -0.0000 0.7071
vn -0.0000 0.7071 0.7071
vn 0.7071 -0.0000 0.7071
vn -0.0000 -0.7071 0.7071
vn 0.7071 -0.7071 -0.0000
vn -0.0000 -0.7071 -0.7071
vn -0.7071 -0.7071 -0.0000
vn -0.7071 -0.0000 -0.7071
vn -0.7071 0.7071 -0.0000
vn -0.0000 0.7071 -0.7071
vn 0.7071 0.7071 -0.0000
vn 0.7071 -0.0000 -0.7071
vt 0.369000 0.350000
vt 0.370000 0.351000
vt 0.369000 0.351000
vt 0.331000 0.350000
vt 0.331000 0.351000
vt 0.330000 0.351000
vt 0.331000 0.390000
vt 0.330000 0.389000
vt 0.331000 0.389000
vt 0.370000 0.389000
vt 0.369000 0.390000
vt 0.369000 0.389000
vt 0.586000 0.356000
vt 0.611172 0.356000
vt 0.586000 0.381172
vt 0.586000 0.336000
vt 0.611172 0.336000
vt 0.586000 0.361172
vt 0.614000 0.384000
vt 0.588828 0.384000
vt 0.614000 0.358828
vt 0.614000 0.364000
vt 0.588828 0.364000
vt 0.614000 0.338828
vt 0.370000 0.369000
vt 0.369000 0.331000
vt 0.370000 0.331000
vt 0.330000 0.331000
vt 0.331000 0.369000
vt 0.330000 0.369000
vt 0.369000 0.369000
vt 0.336000 0.381172
vt 0.361172 0.356000
vt 0.336000 0.361172
vt 0.364000 0.338828
vt 0.338828 0.364000
vt 0.331000 0.331000
vt 0.338828 0.370000
vt 0.364000 0.367500
vt 0.364000 0.370000
vt 0.332500 0.356000
vt 0.330000 0.381172
vt 0.330000 0.356000
vt 0.361172 0.370000
vt 0.336000 0.367500
vt 0.361172 0.367500
vt 0.336000 0.330000
vt 0.361172 0.332500
vt 0.336000 0.332500
vt 0.364000 0.332500
vt 0.338828 0.330000
vt 0.364000 0.330000
vt 0.338828 0.387500
vt 0.364000 0.390000
vt 0.338828 0.390000
vt 0.336000 0.387500
vt 0.361172 0.390000
vt 0.336000 0.390000
vt 0.361172 0.387500
vt 0.336000 0.350000
vt 0.361172 0.352500
vt 0.336000 0.352500
vt 0.338828 0.350000
vt 0.364000 0.352500
vt 0.338828 0.352500
vt 0.332500 0.338828
vt 0.330000 0.364000
vt 0.330000 0.338828
vt 0.367500 0.381172
vt 0.370000 0.356000
vt 0.370000 0.381172
vt 0.370000 0.336000
vt 0.367500 0.361172
vt 0.367500 0.336000
vt 0.332500 0.381172
vt 0.367500 0.356000
vt 0.367500 0.384000
vt 0.370000 0.358828
vt 0.370000 0.384000
vt 0.332500 0.358828
vt 0.330000 0.384000
vt 0.330000 0.358828
vt 0.370000 0.361172
vt 0.367500 0.358828
vt 0.332500 0.384000
vt 0.361172 0.350000
vt 0.364000 0.350000
vt 0.361172 0.330000
vt 0.338828 0.332500
vt 0.338828 0.367500
vt 0.336000 0.370000
vt 0.338828 0.384000
vt 0.364000 0.358828
vt 0.364000 0.384000
vt 0.361172 0.336000
vt 0.364000 0.364000
vt 0.336000 0.356000
vt 0.336000 0.336000
vt 0.364000 0.387500
vt 0.332500 0.364000
s 1
usemtl color_pal_normal1.001
f 3/1/1 2/2/1 1/3/1
f 6/4/2 5/5/2 4/6/2
f 9/7/3 8/8/3 7/9/3
f 12/10/4 11/11/4 10/12/4
f 15/2/5 14/3/5 13/1/5
f 18/5/6 17/6/6 16/4/6
f 21/8/7 20/9/7 19/7/7
f 24/11/8 23/12/8 22/10/8
f 27/13/9 26/14/9 25/15/9
f 30/13/10 29/14/10 28/15/10
f 33/16/11 32/17/11 31/18/11
f 36/16/12 35/17/12 34/18/12
f 39/13/13 38/14/13 37/15/13
f 42/13/14 41/14/14 40/15/14
f 45/19/14 44/20/14 43/21/14
f 48/19/13 47/20/13 46/21/13
f 51/22/12 50/23/12 49/24/12
f 54/22/11 53/23/11 52/24/11
f 57/19/10 56/20/10 55/21/10
f 60/19/9 59/20/9 58/21/9
f 4/6/15 7/9/15 8/8/15
f 9/7/16 10/12/16 11/11/16
f 12/10/17 1/3/17 2/2/17
f 3/1/18 5/5/18 6/4/18
f 2/25/19 16/26/19 17/27/19
f 18/5/20 13/1/20 14/3/20
f 15/28/21 6/29/21 4/30/21
f 14/3/22 22/10/22 23/12/22
f 24/26/23 8/25/23 9/31/23
f 23/12/24 19/7/24 20/9/24
f 21/28/25 11/29/25 12/30/25
f 20/9/26 17/6/26 18/5/26
f 5/5/9 63/32/9 7/9/9
f 68/33/10 18/5/10 14/3/10
f 78/34/11 75/35/11 77/36/11
f 13/37/12 84/34/12 6/29/12
f 86/33/13 2/5/13 17/3/13
f 92/33/14 15/5/14 4/3/14
f 62/38/11 27/39/11 61/40/11
f 27/41/13 63/42/13 61/43/13
f 62/44/21 25/45/21 26/46/21
f 67/47/11 29/48/11 30/49/11
f 30/41/14 69/42/14 67/43/14
f 28/50/19 68/51/19 69/52/19
f 32/53/9 73/54/9 74/55/9
f 33/56/14 78/57/14 73/58/14
f 74/57/26 31/56/26 32/59/26
f 79/60/9 35/61/9 36/62/9
f 84/63/13 36/64/13 34/65/13
f 80/63/22 34/64/22 35/65/22
f 38/66/11 85/67/11 86/68/11
f 39/41/10 87/42/10 85/43/10
f 37/69/18 86/70/18 87/71/18
f 91/72/11 41/73/11 42/74/11
f 93/42/9 42/41/9 40/75/9
f 93/71/20 41/76/20 92/70/20
f 44/66/12 96/67/12 94/68/12
f 45/77/10 95/78/10 96/79/10
f 43/80/16 94/81/16 95/82/16
f 47/73/12 90/72/12 88/83/12
f 90/79/9 46/84/9 89/78/9
f 88/81/24 46/80/24 47/85/24
f 50/61/10 82/60/10 83/86/10
f 51/64/14 81/63/14 82/87/14
f 49/64/17 83/63/17 81/87/17
f 53/53/10 76/54/10 77/55/10
f 76/58/13 52/59/13 75/57/13
f 52/56/15 77/57/15 75/58/15
f 56/48/12 72/47/12 70/88/12
f 71/78/13 57/77/13 55/84/13
f 70/51/23 55/50/23 56/89/23
f 59/90/12 66/40/12 64/38/12
f 60/77/14 65/78/14 66/79/14
f 58/45/25 64/44/25 65/91/25
f 94/92/14 8/12/14 22/9/14
f 22/9/14 93/32/14 94/92/14
f 15/5/14 93/32/14 22/9/14
f 95/93/14 8/12/14 96/94/14
f 95/93/14 92/33/14 4/3/14
f 95/93/14 94/92/14 93/32/14
f 88/92/13 21/12/13 12/9/13
f 12/9/13 87/32/13 88/92/13
f 2/5/13 87/32/13 12/9/13
f 89/93/13 21/12/13 90/94/13
f 89/93/13 86/33/13 17/3/13
f 89/93/13 88/92/13 87/32/13
f 80/95/12 13/37/12 16/26/12
f 16/26/12 81/35/12 80/95/12
f 3/31/12 81/35/12 16/26/12
f 3/31/12 83/36/12 82/96/12
f 84/34/12 83/36/12 6/29/12
f 80/95/12 81/35/12 83/36/12
f 74/95/11 19/37/11 24/26/11
f 24/26/11 75/35/11 74/95/11
f 9/31/11 75/35/11 24/26/11
f 9/31/11 77/36/11 76/96/11
f 11/29/11 78/34/11 77/36/11
f 19/37/11 78/34/11 11/29/11
f 70/92/10 23/12/10 20/9/10
f 20/9/10 69/32/10 70/92/10
f 18/5/10 69/32/10 20/9/10
f 71/93/10 23/12/10 72/94/10
f 71/93/10 68/33/10 14/3/10
f 70/92/10 69/32/10 68/33/10
f 64/92/9 10/12/9 7/9/9
f 65/93/9 10/12/9 66/94/9
f 65/93/9 62/33/9 1/3/9
f 65/93/9 63/32/9 62/33/9
f 7/9/9 63/32/9 64/92/9
f 62/33/9 5/5/9 1/3/9
f 4/6/15 5/5/15 7/9/15
f 9/7/16 7/9/16 10/12/16
f 12/10/17 10/12/17 1/3/17
f 3/1/18 1/3/18 5/5/18
f 2/25/19 3/31/19 16/26/19
f 18/5/20 16/4/20 13/1/20
f 15/28/21 13/37/21 6/29/21
f 14/3/22 15/2/22 22/10/22
f 24/26/23 22/27/23 8/25/23
f 23/12/24 24/11/24 19/7/24
f 21/28/25 19/37/25 11/29/25
f 20/9/26 21/8/26 17/6/26
f 5/5/9 61/97/9 63/32/9
f 68/33/10 67/97/10 18/5/10
f 78/34/11 74/95/11 75/35/11
f 13/37/12 79/98/12 84/34/12
f 86/33/13 85/97/13 2/5/13
f 92/33/14 91/97/14 15/5/14
f 62/38/11 26/90/11 27/39/11
f 27/41/13 25/75/13 63/42/13
f 62/44/21 63/91/21 25/45/21
f 67/47/11 68/88/11 29/48/11
f 30/41/14 28/75/14 69/42/14
f 28/50/19 29/89/19 68/51/19
f 32/53/9 33/99/9 73/54/9
f 33/56/14 31/59/14 78/57/14
f 74/57/26 78/58/26 31/56/26
f 79/60/9 80/86/9 35/61/9
f 84/63/13 79/87/13 36/64/13
f 80/63/22 84/87/22 34/64/22
f 38/66/11 39/100/11 85/67/11
f 39/41/10 37/75/10 87/42/10
f 37/69/18 38/76/18 86/70/18
f 91/72/11 92/83/11 41/73/11
f 93/42/9 91/43/9 42/41/9
f 93/71/20 40/69/20 41/76/20
f 44/66/12 45/100/12 96/67/12
f 45/77/10 43/84/10 95/78/10
f 43/80/16 44/85/16 94/81/16
f 47/73/12 48/74/12 90/72/12
f 90/79/9 48/77/9 46/84/9
f 88/81/24 89/82/24 46/80/24
f 50/61/10 51/62/10 82/60/10
f 51/64/14 49/65/14 81/63/14
f 49/64/17 50/65/17 83/63/17
f 53/53/10 54/99/10 76/54/10
f 76/58/13 54/56/13 52/59/13
f 52/56/15 53/59/15 77/57/15
f 56/48/12 57/49/12 72/47/12
f 71/78/13 72/79/13 57/77/13
f 70/51/23 71/52/23 55/50/23
f 59/90/12 60/39/12 66/40/12
f 60/77/14 58/84/14 65/78/14
f 58/45/25 59/46/25 64/44/25
f 94/92/14 96/94/14 8/12/14
f 15/5/14 91/97/14 93/32/14
f 95/93/14 4/3/14 8/12/14
f 95/93/14 93/32/14 92/33/14
f 88/92/13 90/94/13 21/12/13
f 2/5/13 85/97/13 87/32/13
f 89/93/13 17/3/13 21/12/13
f 89/93/13 87/32/13 86/33/13
f 80/95/12 79/98/12 13/37/12
f 3/31/12 82/96/12 81/35/12
f 3/31/12 6/29/12 83/36/12
f 84/34/12 80/95/12 83/36/12
f 74/95/11 73/98/11 19/37/11
f 9/31/11 76/96/11 75/35/11
f 9/31/11 11/29/11 77/36/11
f 19/37/11 73/98/11 78/34/11
f 70/92/10 72/94/10 23/12/10
f 18/5/10 67/97/10 69/32/10
f 71/93/10 14/3/10 23/12/10
f 71/93/10 70/92/10 68/33/10
f 64/92/9 66/94/9 10/12/9
f 65/93/9 1/3/9 10/12/9
f 65/93/9 64/92/9 63/32/9
f 62/33/9 61/97/9 5/5/9
