# Blender 4.2.3 LTS
# www.blender.org
mtllib switch_floor.mtl
o 立方体
v -9.000000 0.500000 9.000000
v -9.000000 0.500000 -9.000000
v 9.000000 0.500000 9.000000
v 9.000000 0.500000 -9.000000
v -9.000000 0.000000 9.000000
v -9.000000 0.000000 -9.000000
v 9.000000 0.000000 -9.000000
v 9.000000 0.000000 9.000000
vn -1.0000 -0.0000 -0.0000
vn -0.0000 -0.0000 -1.0000
vn 1.0000 -0.0000 -0.0000
vn -0.0000 -0.0000 1.0000
vn -0.0000 1.0000 -0.0000
vt 0.999212 0.500123
vt 0.874212 0.750123
vt 0.874212 0.500123
vt 1.000000 0.751953
vt 0.875000 1.001953
vt 0.875000 0.751953
vt 0.625000 0.500000
vt 0.500000 0.750000
vt 0.500000 0.500000
vt 0.625000 0.750000
vt 0.500000 1.000000
vt 0.875000 0.500000
vt 0.999212 0.750123
vt 1.000000 1.001953
vt 0.625000 1.000000
vt 0.875000 0.750000
s 0
usemtl マテリアル
f 1/1/1 6/2/1 5/3/1
f 2/4/2 7/5/2 6/6/2
f 4/7/3 8/8/3 7/9/3
f 3/10/4 5/11/4 8/8/4
f 2/12/5 3/10/5 4/7/5
f 1/1/1 2/13/1 6/2/1
f 2/4/2 4/14/2 7/5/2
f 4/7/3 3/10/3 8/8/3
f 3/10/4 1/15/4 5/11/4
f 2/12/5 1/16/5 3/10/5
