# Blender 4.2.3 LTS
# www.blender.org
mtllib door_col.mtl
o DoorCol.001
v -4.950001 0.000002 -3.849996
v -4.950001 22.000002 -3.849998
v 4.950001 0.000002 -3.849996
v 4.950001 22.000002 -3.849998
v -4.950001 0.000003 3.299999
v -4.950001 22.000002 3.299998
v 4.950001 0.000003 3.299999
v 4.950001 22.000002 3.299998
vn -0.0000 -0.0000 -1.0000
vn -0.0000 -0.0000 1.0000
vn 1.0000 -0.0000 -0.0000
vn -1.0000 -0.0000 -0.0000
vt 0.625000 0.250000
vt 0.375000 0.500000
vt 0.375000 0.250000
vt 0.625000 0.500000
vt 0.625000 0.750000
vt 0.375000 1.000000
vt 0.375000 0.750000
vt 0.625000 1.000000
s 0
usemtl マテリアル.142
f 2/1/1 3/2/1 1/3/1
f 2/1/1 4/4/1 3/2/1
f 8/5/2 5/6/2 7/7/2
f 8/5/2 6/8/2 5/6/2
f 8/5/3 3/2/3 4/4/3
f 1/3/4 6/8/4 2/1/4
f 8/5/3 7/7/3 3/2/3
f 1/3/4 5/6/4 6/8/4
